<mxfile host="app.diagrams.net" modified="2024-01-18T21:28:24.244Z" agent="Mozilla/5.0 (Windows NT 10.0; Win64; x64) AppleWebKit/537.36 (KHTML, like Gecko) Chrome/120.0.0.0 Safari/537.36" etag="CrLIY3EnfhMHQ-MvFNWQ" version="22.1.21" type="github">
  <diagram id="a45cf8ec-cd66-6f27-3ac3-be6e809c9e4a" name="Page-1">
    <mxGraphModel dx="3027" dy="2234" grid="1" gridSize="10" guides="1" tooltips="1" connect="1" arrows="1" fold="1" page="1" pageScale="1" pageWidth="827" pageHeight="1169" background="none" math="0" shadow="0">
      <root>
        <mxCell id="0" />
        <mxCell id="1" parent="0" />
        <mxCell id="2" value="Maintenance" style="rounded=1;whiteSpace=wrap;html=1;shadow=0;strokeColor=none;fillColor=#BAC8D3;gradientColor=none;fontSize=18;fontColor=#AE4132;verticalAlign=bottom;fontStyle=0;opacity=40;strokeWidth=3;" parent="1" vertex="1">
          <mxGeometry x="1770" y="3790" width="150" height="440" as="geometry" />
        </mxCell>
        <mxCell id="3" value="" style="rounded=1;whiteSpace=wrap;html=1;shadow=0;strokeColor=none;fillColor=#BAC8D3;gradientColor=none;fontSize=18;fontColor=#F08705;opacity=40;fontStyle=0;strokeWidth=3;" parent="1" vertex="1">
          <mxGeometry x="505" y="3550" width="1215" height="701" as="geometry" />
        </mxCell>
        <mxCell id="4" value="&lt;span&gt;Section 1&lt;/span&gt;" style="rounded=1;whiteSpace=wrap;html=1;shadow=0;strokeColor=none;fillColor=#BAC8D3;gradientColor=none;fontSize=18;fontColor=#AE4132;verticalAlign=top;opacity=70;fontStyle=0;strokeWidth=3;" parent="1" vertex="1">
          <mxGeometry x="780" y="3559" width="300" height="103" as="geometry" />
        </mxCell>
        <mxCell id="5" value="&lt;span style=&quot;line-height: 17.1818180084229px&quot;&gt;Section 3&lt;/span&gt;" style="rounded=1;whiteSpace=wrap;html=1;shadow=0;strokeColor=none;fillColor=#BAC8D3;gradientColor=none;fontSize=18;fontColor=#AE4132;verticalAlign=top;fontStyle=0;opacity=70;strokeWidth=3;" parent="1" vertex="1">
          <mxGeometry x="775" y="3749" width="300" height="105" as="geometry" />
        </mxCell>
        <mxCell id="6" value="&lt;span style=&quot;line-height: 17.1818180084229px&quot;&gt;Section 5&lt;/span&gt;" style="rounded=1;whiteSpace=wrap;html=1;shadow=0;strokeColor=none;fillColor=#BAC8D3;gradientColor=none;fontSize=18;fontColor=#AE4132;verticalAlign=top;fontStyle=0;opacity=70;strokeWidth=3;" parent="1" vertex="1">
          <mxGeometry x="605" y="3929" width="295" height="115" as="geometry" />
        </mxCell>
        <mxCell id="7" value="Server Farm" style="rounded=1;whiteSpace=wrap;html=1;shadow=0;strokeColor=none;fillColor=#BAC8D3;gradientColor=none;fontSize=18;fontColor=#AE4132;verticalAlign=top;fontStyle=0;opacity=70;strokeWidth=3;" parent="1" vertex="1">
          <mxGeometry x="920" y="3919" width="270" height="120" as="geometry" />
        </mxCell>
        <mxCell id="8" value="Service Processing" style="rounded=1;whiteSpace=wrap;html=1;shadow=0;strokeColor=none;fillColor=#BAC8D3;gradientColor=none;fontSize=18;fontColor=#AE4132;verticalAlign=top;fontStyle=0;opacity=70;strokeWidth=3;" parent="1" vertex="1">
          <mxGeometry x="1210" y="3919" width="280" height="130" as="geometry" />
        </mxCell>
        <mxCell id="9" value="&lt;span style=&quot;line-height: 17.1818180084229px&quot;&gt;Section 4&lt;/span&gt;&lt;br&gt;" style="rounded=1;whiteSpace=wrap;html=1;shadow=0;strokeColor=none;fillColor=#BAC8D3;gradientColor=none;fontSize=18;fontColor=#AE4132;verticalAlign=top;opacity=70;fontStyle=0;strokeWidth=3;" parent="1" vertex="1">
          <mxGeometry x="1190" y="3749" width="300" height="105" as="geometry" />
        </mxCell>
        <mxCell id="10" value="&lt;span style=&quot;line-height: 17.1818180084229px&quot;&gt;Section 2&lt;/span&gt;&lt;br&gt;" style="rounded=1;whiteSpace=wrap;html=1;shadow=0;strokeColor=none;fillColor=#BAC8D3;gradientColor=none;fontSize=18;fontColor=#AE4132;verticalAlign=top;opacity=70;fontStyle=0;strokeWidth=3;" parent="1" vertex="1">
          <mxGeometry x="1190" y="3559" width="300" height="108" as="geometry" />
        </mxCell>
        <mxCell id="11" value="LEG. ELIZABETH CONEJERO" style="rounded=1;whiteSpace=wrap;html=1;shadow=0;strokeColor=none;fillColor=#BAC8D3;gradientColor=none;fontSize=18;fontColor=#AE4132;fontStyle=0;verticalAlign=bottom;opacity=40;strokeWidth=3;" parent="1" vertex="1">
          <mxGeometry x="1766" y="1589" width="459" height="321" as="geometry" />
        </mxCell>
        <mxCell id="12" value="COORDINACIÓN DE TECNOLOGÍA DE LA INFORMACIÓN" style="rounded=1;whiteSpace=wrap;html=1;shadow=0;strokeColor=none;fillColor=#BAC8D3;gradientColor=none;fontSize=18;fontColor=#AE4132;verticalAlign=bottom;fontStyle=0;opacity=40;strokeWidth=3;" parent="1" vertex="1">
          <mxGeometry x="1144" y="1584" width="457" height="326" as="geometry" />
        </mxCell>
        <mxCell id="13" value="Contractors" style="rounded=1;whiteSpace=wrap;html=1;shadow=0;strokeColor=none;fillColor=#BAC8D3;gradientColor=none;fontSize=18;fontColor=#AE4132;verticalAlign=bottom;fontStyle=0;opacity=40;strokeWidth=3;" parent="1" vertex="1">
          <mxGeometry x="-6" y="1885" width="294" height="207" as="geometry" />
        </mxCell>
        <mxCell id="14" value="Branch 2" style="rounded=1;whiteSpace=wrap;html=1;shadow=0;strokeColor=none;fillColor=#BAC8D3;gradientColor=none;fontSize=18;fontColor=#AE4132;fontStyle=0;verticalAlign=bottom;opacity=40;strokeWidth=3;" parent="1" vertex="1">
          <mxGeometry x="-539" y="1970" width="420" height="157" as="geometry" />
        </mxCell>
        <mxCell id="15" value="DIRECCIÓN DE RELACIONES PUBLICAS Y COMUNICACIONES" style="rounded=1;whiteSpace=wrap;html=1;shadow=0;strokeColor=none;fillColor=#BAC8D3;gradientColor=none;fontSize=18;fontColor=#AE4132;verticalAlign=bottom;fontStyle=0;opacity=40;strokeWidth=3;" parent="1" vertex="1">
          <mxGeometry x="580" y="1584" width="440" height="326" as="geometry" />
        </mxCell>
        <mxCell id="16" value="OFICINA DE ATENCIÓN AL CIUDADANO" style="rounded=1;whiteSpace=wrap;html=1;shadow=0;strokeColor=none;fillColor=#BAC8D3;gradientColor=none;fontSize=18;fontColor=#AE4132;verticalAlign=bottom;fontStyle=0;opacity=40;strokeWidth=3;" parent="1" vertex="1">
          <mxGeometry x="-282" y="1226" width="480" height="542" as="geometry" />
        </mxCell>
        <mxCell id="17" value="Cloud 3" style="ellipse;shape=cloud;whiteSpace=wrap;html=1;shadow=0;strokeColor=#23445D;fillColor=#BAC8D3;gradientColor=none;fontSize=18;fontColor=#23445D;gradientDirection=north;fontStyle=0;strokeWidth=2;" parent="1" vertex="1">
          <mxGeometry x="1770" y="3598" width="120" height="80" as="geometry" />
        </mxCell>
        <mxCell id="18" value="Cloud 4" style="ellipse;shape=cloud;whiteSpace=wrap;html=1;shadow=0;strokeColor=#23445D;fillColor=#BAC8D3;gradientColor=none;fontSize=18;fontColor=#23445D;gradientDirection=north;fontStyle=0;strokeWidth=2;" parent="1" vertex="1">
          <mxGeometry x="1770" y="3700" width="120" height="80" as="geometry" />
        </mxCell>
        <mxCell id="20" value="" style="strokeWidth=2;strokeColor=#666666;dashed=0;align=center;html=1;fontSize=8;shape=mxgraph.eip.messageChannel;shadow=0;fillColor=#FFFFFF;gradientColor=none;fontColor=#F08705;fontStyle=0" parent="1" vertex="1">
          <mxGeometry x="650" y="3710" width="440" height="20" as="geometry" />
        </mxCell>
        <mxCell id="21" value="" style="edgeStyle=elbowEdgeStyle;strokeWidth=2;rounded=0;endArrow=none;startArrow=none;startSize=10;endSize=10;dashed=0;html=1;strokeColor=#23445D;fontSize=18;fontColor=#F08705;startFill=0;endFill=0;fontStyle=0" parent="1" source="24" target="20" edge="1">
          <mxGeometry relative="1" as="geometry">
            <mxPoint x="830" y="3650" as="sourcePoint" />
            <mxPoint x="830" y="3710" as="targetPoint" />
          </mxGeometry>
        </mxCell>
        <mxCell id="22" value="" style="image;html=1;image=img/lib/clip_art/computers/Monitor_Tower_128x128.png;shadow=0;strokeColor=#000000;fillColor=#FFFFFF;gradientColor=none;fontSize=18;fontColor=#F08705;fontStyle=0" parent="1" vertex="1">
          <mxGeometry x="374" y="170" width="80" height="80" as="geometry" />
        </mxCell>
        <mxCell id="23" value="CLEB" style="image;html=1;image=img/lib/clip_art/networking/Bridge_128x128.png;shadow=0;strokeColor=#000000;fillColor=#FFFFFF;gradientColor=none;fontSize=18;fontColor=#F08705;fontStyle=0" parent="1" vertex="1">
          <mxGeometry x="683" y="-810" width="80" height="80" as="geometry" />
        </mxCell>
        <mxCell id="24" value="" style="image;html=1;image=img/lib/clip_art/computers/Netbook_128x128.png;shadow=0;strokeColor=#000000;fillColor=#FFFFFF;gradientColor=none;fontSize=18;fontColor=#F08705;fontStyle=0" parent="1" vertex="1">
          <mxGeometry x="790" y="3577" width="80" height="80" as="geometry" />
        </mxCell>
        <mxCell id="25" value="" style="image;html=1;image=img/lib/clip_art/computers/Netbook_128x128.png;shadow=0;strokeColor=#000000;fillColor=#FFFFFF;gradientColor=none;fontSize=18;fontColor=#F08705;fontStyle=0" parent="1" vertex="1">
          <mxGeometry x="880" y="3577" width="80" height="80" as="geometry" />
        </mxCell>
        <mxCell id="26" value="" style="image;html=1;image=img/lib/clip_art/computers/Netbook_128x128.png;shadow=0;strokeColor=#000000;fillColor=#FFFFFF;gradientColor=none;fontSize=18;fontColor=#F08705;fontStyle=0" parent="1" vertex="1">
          <mxGeometry x="980" y="3577" width="80" height="80" as="geometry" />
        </mxCell>
        <mxCell id="27" value="" style="image;html=1;image=img/lib/clip_art/computers/Netbook_128x128.png;shadow=0;strokeColor=#000000;fillColor=#FFFFFF;gradientColor=none;fontSize=18;fontColor=#F08705;fontStyle=0" parent="1" vertex="1">
          <mxGeometry x="1210" y="3577" width="80" height="80" as="geometry" />
        </mxCell>
        <mxCell id="28" value="" style="image;html=1;image=img/lib/clip_art/computers/Netbook_128x128.png;shadow=0;strokeColor=#000000;fillColor=#FFFFFF;gradientColor=none;fontSize=18;fontColor=#F08705;fontStyle=0" parent="1" vertex="1">
          <mxGeometry x="1300" y="3577" width="80" height="80" as="geometry" />
        </mxCell>
        <mxCell id="29" value="" style="image;html=1;image=img/lib/clip_art/computers/Netbook_128x128.png;shadow=0;strokeColor=#000000;fillColor=#FFFFFF;gradientColor=none;fontSize=18;fontColor=#F08705;fontStyle=0" parent="1" vertex="1">
          <mxGeometry x="1400" y="3580" width="77" height="77" as="geometry" />
        </mxCell>
        <mxCell id="30" value="" style="image;html=1;image=img/lib/clip_art/computers/Netbook_128x128.png;shadow=0;strokeColor=#000000;fillColor=#FFFFFF;gradientColor=none;fontSize=18;fontColor=#F08705;fontStyle=0" parent="1" vertex="1">
          <mxGeometry x="790" y="3769" width="80" height="80" as="geometry" />
        </mxCell>
        <mxCell id="31" value="" style="image;html=1;image=img/lib/clip_art/computers/Netbook_128x128.png;shadow=0;strokeColor=#000000;fillColor=#FFFFFF;gradientColor=none;fontSize=18;fontColor=#F08705;fontStyle=0" parent="1" vertex="1">
          <mxGeometry x="880" y="3769" width="80" height="80" as="geometry" />
        </mxCell>
        <mxCell id="32" value="" style="image;html=1;image=img/lib/clip_art/computers/Netbook_128x128.png;shadow=0;strokeColor=#000000;fillColor=#FFFFFF;gradientColor=none;fontSize=18;fontColor=#AE4132;fontStyle=0" parent="1" vertex="1">
          <mxGeometry x="980" y="3769" width="80" height="80" as="geometry" />
        </mxCell>
        <mxCell id="33" value="" style="image;html=1;image=img/lib/clip_art/computers/Netbook_128x128.png;shadow=0;strokeColor=#000000;fillColor=#FFFFFF;gradientColor=none;fontSize=18;fontColor=#F08705;fontStyle=0" parent="1" vertex="1">
          <mxGeometry x="1210" y="3769" width="80" height="80" as="geometry" />
        </mxCell>
        <mxCell id="34" value="" style="image;html=1;image=img/lib/clip_art/computers/Netbook_128x128.png;shadow=0;strokeColor=#000000;fillColor=#FFFFFF;gradientColor=none;fontSize=18;fontColor=#F08705;fontStyle=0" parent="1" vertex="1">
          <mxGeometry x="1300" y="3769" width="80" height="80" as="geometry" />
        </mxCell>
        <mxCell id="35" value="" style="image;html=1;image=img/lib/clip_art/computers/Netbook_128x128.png;shadow=0;strokeColor=#000000;fillColor=#FFFFFF;gradientColor=none;fontSize=18;fontColor=#F08705;fontStyle=0" parent="1" vertex="1">
          <mxGeometry x="1400" y="3769" width="80" height="80" as="geometry" />
        </mxCell>
        <mxCell id="36" value="" style="image;html=1;image=img/lib/clip_art/computers/Netbook_128x128.png;shadow=0;strokeColor=#000000;fillColor=#FFFFFF;gradientColor=none;fontSize=18;fontColor=#F08705;fontStyle=0" parent="1" vertex="1">
          <mxGeometry x="620" y="3954" width="80" height="80" as="geometry" />
        </mxCell>
        <mxCell id="37" value="" style="image;html=1;image=img/lib/clip_art/computers/Netbook_128x128.png;shadow=0;strokeColor=#000000;fillColor=#FFFFFF;gradientColor=none;fontSize=18;fontColor=#F08705;fontStyle=0" parent="1" vertex="1">
          <mxGeometry x="710" y="3954" width="80" height="80" as="geometry" />
        </mxCell>
        <mxCell id="38" value="" style="image;html=1;image=img/lib/clip_art/computers/Netbook_128x128.png;shadow=0;strokeColor=#000000;fillColor=#FFFFFF;gradientColor=none;fontSize=18;fontColor=#F08705;fontStyle=0" parent="1" vertex="1">
          <mxGeometry x="810" y="3954" width="80" height="80" as="geometry" />
        </mxCell>
        <mxCell id="39" value="" style="image;html=1;image=img/lib/clip_art/computers/Server_Rack_128x128.png;shadow=0;strokeColor=#000000;fillColor=#FFFFFF;gradientColor=none;fontSize=18;fontColor=#F08705;fontStyle=0" parent="1" vertex="1">
          <mxGeometry x="200" y="-760" width="80" height="80" as="geometry" />
        </mxCell>
        <mxCell id="40" value="" style="image;html=1;image=img/lib/clip_art/computers/Server_Rack_128x128.png;shadow=0;strokeColor=#000000;fillColor=#FFFFFF;gradientColor=none;fontSize=18;fontColor=#F08705;fontStyle=0" parent="1" vertex="1">
          <mxGeometry x="1010" y="3954" width="80" height="80" as="geometry" />
        </mxCell>
        <mxCell id="41" value="" style="image;html=1;image=img/lib/clip_art/computers/Server_Rack_128x128.png;shadow=0;strokeColor=#000000;fillColor=#FFFFFF;gradientColor=none;fontSize=18;fontColor=#F08705;fontStyle=0" parent="1" vertex="1">
          <mxGeometry x="1100" y="3954" width="80" height="80" as="geometry" />
        </mxCell>
        <mxCell id="42" value="" style="image;html=1;image=img/lib/clip_art/computers/Server_Tower_128x128.png;shadow=0;strokeColor=#000000;fillColor=#FFFFFF;gradientColor=none;fontSize=18;fontColor=#F08705;fontStyle=0" parent="1" vertex="1">
          <mxGeometry x="340" y="-760" width="80" height="80" as="geometry" />
        </mxCell>
        <mxCell id="43" value="" style="image;html=1;image=img/lib/clip_art/computers/Server_Tower_128x128.png;shadow=0;strokeColor=#000000;fillColor=#FFFFFF;gradientColor=none;fontSize=18;fontColor=#F08705;fontStyle=0" parent="1" vertex="1">
          <mxGeometry x="1315" y="3964" width="80" height="80" as="geometry" />
        </mxCell>
        <mxCell id="44" value="" style="image;html=1;image=img/lib/clip_art/computers/Server_Tower_128x128.png;shadow=0;strokeColor=#000000;fillColor=#FFFFFF;gradientColor=none;fontSize=18;fontColor=#F08705;fontStyle=0" parent="1" vertex="1">
          <mxGeometry x="1405" y="3964" width="80" height="80" as="geometry" />
        </mxCell>
        <mxCell id="45" value="" style="strokeWidth=2;strokeColor=#666666;dashed=0;align=center;html=1;fontSize=8;shape=mxgraph.eip.messageChannel;shadow=0;fillColor=#FFFFFF;gradientColor=none;fontColor=#F08705;fontStyle=0" parent="1" vertex="1">
          <mxGeometry x="1208" y="3709" width="422" height="20" as="geometry" />
        </mxCell>
        <mxCell id="46" value="" style="strokeWidth=2;strokeColor=#666666;dashed=0;align=center;html=1;fontSize=8;shape=mxgraph.eip.messageChannel;shadow=0;fillColor=#FFFFFF;gradientColor=none;fontColor=#F08705;fontStyle=0" parent="1" vertex="1">
          <mxGeometry x="640" y="3879" width="440" height="20" as="geometry" />
        </mxCell>
        <mxCell id="47" value="" style="strokeWidth=2;strokeColor=#666666;dashed=0;align=center;html=1;fontSize=8;shape=mxgraph.eip.messageChannel;shadow=0;fillColor=#FFFFFF;gradientColor=none;fontColor=#F08705;fontStyle=0" parent="1" vertex="1">
          <mxGeometry x="1208" y="3879" width="412" height="20" as="geometry" />
        </mxCell>
        <mxCell id="48" value="" style="strokeWidth=2;strokeColor=#666666;dashed=0;align=center;html=1;fontSize=8;shape=mxgraph.eip.messageChannel;shadow=0;fillColor=#FFFFFF;gradientColor=none;fontColor=#F08705;fontStyle=0" parent="1" vertex="1">
          <mxGeometry x="520" y="4074" width="1090" height="20" as="geometry" />
        </mxCell>
        <mxCell id="49" value="#2283&lt;br&gt;192.168.1.1" style="ellipse;shape=cloud;whiteSpace=wrap;html=1;shadow=0;strokeColor=#23445D;fillColor=#BAC8D3;gradientColor=none;fontSize=18;fontColor=#23445D;fontStyle=0;gradientDirection=north;strokeWidth=2;" parent="1" vertex="1">
          <mxGeometry x="563" y="-1030" width="120" height="80" as="geometry" />
        </mxCell>
        <mxCell id="50" value="Cloud 2" style="ellipse;shape=cloud;whiteSpace=wrap;html=1;shadow=0;strokeColor=#23445D;fillColor=#BAC8D3;gradientColor=none;fontSize=18;fontColor=#23445D;fontStyle=0;gradientDirection=north;strokeWidth=2;" parent="1" vertex="1">
          <mxGeometry x="340" y="3839" width="120" height="80" as="geometry" />
        </mxCell>
        <mxCell id="51" value="" style="image;html=1;image=img/lib/clip_art/networking/Router_128x128.png;shadow=0;strokeColor=#000000;fillColor=#FFFFFF;gradientColor=none;fontSize=18;fontColor=#F08705;fontStyle=0" parent="1" vertex="1">
          <mxGeometry x="1530" y="3597" width="80" height="80" as="geometry" />
        </mxCell>
        <mxCell id="52" value="" style="image;html=1;image=img/lib/clip_art/networking/Router_128x128.png;shadow=0;strokeColor=#000000;fillColor=#FFFFFF;gradientColor=none;fontSize=18;fontColor=#F08705;fontStyle=0" parent="1" vertex="1">
          <mxGeometry x="1540" y="3761" width="80" height="80" as="geometry" />
        </mxCell>
        <mxCell id="53" value="" style="image;html=1;image=img/lib/clip_art/networking/Router_128x128.png;shadow=0;strokeColor=#000000;fillColor=#FFFFFF;gradientColor=none;fontSize=18;fontColor=#F08705;fontStyle=0" parent="1" vertex="1">
          <mxGeometry x="950" y="4159" width="80" height="80" as="geometry" />
        </mxCell>
        <mxCell id="54" value="" style="image;html=1;image=img/lib/clip_art/computers/Monitor_Tower_128x128.png;shadow=0;strokeColor=#000000;fillColor=#FFFFFF;gradientColor=none;fontSize=18;fontColor=#F08705;fontStyle=0" parent="1" vertex="1">
          <mxGeometry x="1520" y="3964" width="80" height="80" as="geometry" />
        </mxCell>
        <mxCell id="55" value="" style="image;html=1;image=img/lib/clip_art/networking/Wireless_Router_128x128.png;shadow=0;strokeColor=#000000;fillColor=#FFFFFF;gradientColor=none;fontSize=18;fontColor=#F08705;fontStyle=0" parent="1" vertex="1">
          <mxGeometry x="690" y="4159" width="80" height="80" as="geometry" />
        </mxCell>
        <mxCell id="56" value="" style="image;html=1;image=img/lib/clip_art/networking/Wireless_Router_128x128.png;shadow=0;strokeColor=#000000;fillColor=#FFFFFF;gradientColor=none;fontSize=18;fontColor=#F08705;fontStyle=0" parent="1" vertex="1">
          <mxGeometry x="1630" y="3964" width="80" height="80" as="geometry" />
        </mxCell>
        <mxCell id="62" value="" style="strokeWidth=2;strokeColor=#666666;dashed=0;align=center;html=1;fontSize=8;shape=mxgraph.eip.messageChannel;shadow=0;fillColor=#FFFFFF;gradientColor=none;fontColor=#F08705;fontStyle=0" parent="1" vertex="1">
          <mxGeometry x="595" y="1748" width="415" height="20" as="geometry" />
        </mxCell>
        <mxCell id="63" value="" style="image;html=1;image=img/lib/clip_art/computers/Netbook_128x128.png;shadow=0;strokeColor=#000000;fillColor=#FFFFFF;gradientColor=none;fontSize=18;fontColor=#F08705;fontStyle=0" parent="1" vertex="1">
          <mxGeometry x="-514" y="1970" width="80" height="80" as="geometry" />
        </mxCell>
        <mxCell id="64" value="" style="image;html=1;image=img/lib/clip_art/computers/Netbook_128x128.png;shadow=0;strokeColor=#000000;fillColor=#FFFFFF;gradientColor=none;fontSize=18;fontColor=#F08705;fontStyle=0" parent="1" vertex="1">
          <mxGeometry x="-424" y="1970" width="80" height="80" as="geometry" />
        </mxCell>
        <mxCell id="65" value="" style="image;html=1;image=img/lib/clip_art/computers/Netbook_128x128.png;shadow=0;strokeColor=#000000;fillColor=#FFFFFF;gradientColor=none;fontSize=18;fontColor=#F08705;fontStyle=0" parent="1" vertex="1">
          <mxGeometry x="-324" y="1970" width="80" height="80" as="geometry" />
        </mxCell>
        <mxCell id="66" value="" style="strokeWidth=2;strokeColor=#666666;dashed=0;align=center;html=1;fontSize=8;shape=mxgraph.eip.messageChannel;shadow=0;fillColor=#FFFFFF;gradientColor=none;fontColor=#F08705;fontStyle=0" parent="1" vertex="1">
          <mxGeometry x="-514" y="2072" width="385" height="20" as="geometry" />
        </mxCell>
        <mxCell id="70" value="" style="strokeWidth=2;strokeColor=#666666;dashed=0;align=center;html=1;fontSize=8;shape=mxgraph.eip.messageChannel;shadow=0;fillColor=#FFFFFF;gradientColor=none;fontColor=#F08705;fontStyle=0" parent="1" vertex="1">
          <mxGeometry x="1184" y="1748" width="400" height="20" as="geometry" />
        </mxCell>
        <mxCell id="73" value="" style="image;html=1;image=img/lib/clip_art/computers/Netbook_128x128.png;shadow=0;strokeColor=#000000;fillColor=#FFFFFF;gradientColor=none;fontSize=18;fontColor=#F08705;fontStyle=0" parent="1" vertex="1">
          <mxGeometry x="2106" y="1597" width="80" height="80" as="geometry" />
        </mxCell>
        <mxCell id="74" value="" style="strokeWidth=2;strokeColor=#666666;dashed=0;align=center;html=1;fontSize=8;shape=mxgraph.eip.messageChannel;shadow=0;fillColor=#FFFFFF;gradientColor=none;fontColor=#F08705;fontStyle=0" parent="1" vertex="1">
          <mxGeometry x="1780.5" y="1748" width="430" height="20" as="geometry" />
        </mxCell>
        <mxCell id="75" value="" style="image;html=1;image=img/lib/clip_art/networking/Wireless_Router_128x128.png;shadow=0;strokeColor=#000000;fillColor=#FFFFFF;gradientColor=none;fontSize=18;fontColor=#F08705;fontStyle=0" parent="1" vertex="1">
          <mxGeometry x="-219" y="1970" width="80" height="80" as="geometry" />
        </mxCell>
        <mxCell id="76" value="" style="image;html=1;image=img/lib/clip_art/computers/Workstation_128x128.png;shadow=0;strokeColor=#000000;fillColor=#FFFFFF;gradientColor=none;fontSize=18;fontColor=#F08705;fontStyle=0" parent="1" vertex="1">
          <mxGeometry x="1810" y="3899" width="80" height="80" as="geometry" />
        </mxCell>
        <mxCell id="77" value="" style="image;html=1;image=img/lib/clip_art/computers/Workstation_128x128.png;shadow=0;strokeColor=#000000;fillColor=#FFFFFF;gradientColor=none;fontSize=18;fontColor=#F08705;fontStyle=0" parent="1" vertex="1">
          <mxGeometry x="1810" y="4004" width="80" height="80" as="geometry" />
        </mxCell>
        <mxCell id="78" value="" style="image;html=1;image=img/lib/clip_art/computers/Workstation_128x128.png;shadow=0;strokeColor=#000000;fillColor=#FFFFFF;gradientColor=none;fontSize=18;fontColor=#F08705;fontStyle=0" parent="1" vertex="1">
          <mxGeometry x="1810" y="4109" width="80" height="80" as="geometry" />
        </mxCell>
        <mxCell id="79" value="" style="image;html=1;image=img/lib/clip_art/computers/Workstation_128x128.png;shadow=0;strokeColor=#000000;fillColor=#FFFFFF;gradientColor=none;fontSize=18;fontColor=#F08705;fontStyle=0" parent="1" vertex="1">
          <mxGeometry x="330" y="3983" width="80" height="80" as="geometry" />
        </mxCell>
        <mxCell id="80" value="" style="image;html=1;image=img/lib/clip_art/computers/Workstation_128x128.png;shadow=0;strokeColor=#000000;fillColor=#FFFFFF;gradientColor=none;fontSize=18;fontColor=#F08705;fontStyle=0" parent="1" vertex="1">
          <mxGeometry x="340" y="4079" width="80" height="80" as="geometry" />
        </mxCell>
        <mxCell id="81" value="" style="image;html=1;image=img/lib/clip_art/computers/Workstation_128x128.png;shadow=0;strokeColor=#000000;fillColor=#FFFFFF;gradientColor=none;fontSize=18;fontColor=#F08705;fontStyle=0" parent="1" vertex="1">
          <mxGeometry x="340" y="4173" width="80" height="80" as="geometry" />
        </mxCell>
        <mxCell id="82" value="" style="image;html=1;image=img/lib/clip_art/networking/Firewall_128x128.png;shadow=0;strokeColor=#000000;fillColor=#FFFFFF;gradientColor=none;fontSize=18;fontColor=#F08705;fontStyle=0" parent="1" vertex="1">
          <mxGeometry x="1295" y="4159" width="80" height="80" as="geometry" />
        </mxCell>
        <mxCell id="84" value="SC" style="image;html=1;image=img/lib/clip_art/networking/Router_128x128.png;shadow=0;strokeColor=#000000;fillColor=#FFFFFF;gradientColor=none;fontSize=18;fontColor=#F08705;fontStyle=0" parent="1" vertex="1">
          <mxGeometry x="520" y="-330" width="80" height="80" as="geometry" />
        </mxCell>
        <mxCell id="85" value="" style="edgeStyle=elbowEdgeStyle;strokeWidth=2;rounded=0;endArrow=none;startArrow=none;startSize=10;endSize=10;dashed=0;html=1;strokeColor=#23445D;fontSize=18;fontColor=#F08705;startFill=0;endFill=0;fontStyle=0" parent="1" source="25" target="20" edge="1">
          <mxGeometry relative="1" as="geometry">
            <mxPoint x="920" y="3650" as="sourcePoint" />
            <mxPoint x="920" y="3710" as="targetPoint" />
          </mxGeometry>
        </mxCell>
        <mxCell id="86" value="" style="edgeStyle=elbowEdgeStyle;strokeWidth=2;rounded=0;endArrow=none;startArrow=none;startSize=10;endSize=10;dashed=0;html=1;strokeColor=#23445D;fontSize=18;fontColor=#F08705;startFill=0;endFill=0;fontStyle=0" parent="1" source="26" target="20" edge="1">
          <mxGeometry relative="1" as="geometry">
            <mxPoint x="1020" y="3650" as="sourcePoint" />
            <mxPoint x="1020" y="3710" as="targetPoint" />
          </mxGeometry>
        </mxCell>
        <mxCell id="87" value="" style="edgeStyle=elbowEdgeStyle;strokeWidth=2;rounded=0;endArrow=none;startArrow=none;startSize=10;endSize=10;dashed=0;html=1;strokeColor=#23445D;fontSize=18;fontColor=#F08705;startFill=0;endFill=0;fontStyle=0" parent="1" source="27" target="45" edge="1">
          <mxGeometry relative="1" as="geometry">
            <mxPoint x="1200" y="3649" as="sourcePoint" />
            <mxPoint x="1200" y="3702" as="targetPoint" />
          </mxGeometry>
        </mxCell>
        <mxCell id="88" value="" style="edgeStyle=elbowEdgeStyle;strokeWidth=2;rounded=0;endArrow=none;startArrow=none;startSize=10;endSize=10;dashed=0;html=1;strokeColor=#23445D;fontSize=18;fontColor=#F08705;startFill=0;endFill=0;fontStyle=0" parent="1" source="28" target="45" edge="1">
          <mxGeometry relative="1" as="geometry">
            <mxPoint x="850" y="3677" as="sourcePoint" />
            <mxPoint x="850" y="3730" as="targetPoint" />
          </mxGeometry>
        </mxCell>
        <mxCell id="89" value="" style="edgeStyle=elbowEdgeStyle;strokeWidth=2;rounded=0;endArrow=none;startArrow=none;startSize=10;endSize=10;dashed=0;html=1;strokeColor=#23445D;fontSize=18;fontColor=#F08705;startFill=0;endFill=0;fontStyle=0" parent="1" source="29" target="45" edge="1">
          <mxGeometry relative="1" as="geometry">
            <mxPoint x="1350" y="3667" as="sourcePoint" />
            <mxPoint x="1350" y="3719" as="targetPoint" />
          </mxGeometry>
        </mxCell>
        <mxCell id="90" value="" style="edgeStyle=elbowEdgeStyle;strokeWidth=2;rounded=0;endArrow=none;startArrow=none;startSize=10;endSize=10;dashed=0;html=1;strokeColor=#23445D;fontSize=18;fontColor=#F08705;startFill=0;endFill=0;fontStyle=0" parent="1" source="51" target="45" edge="1">
          <mxGeometry relative="1" as="geometry">
            <mxPoint x="1360" y="3677" as="sourcePoint" />
            <mxPoint x="1360" y="3729" as="targetPoint" />
          </mxGeometry>
        </mxCell>
        <mxCell id="91" value="" style="edgeStyle=elbowEdgeStyle;strokeWidth=2;rounded=0;endArrow=none;startArrow=none;startSize=10;endSize=10;dashed=0;html=1;strokeColor=#23445D;fontSize=18;fontColor=#F08705;startFill=0;endFill=0;fontStyle=0" parent="1" source="30" target="46" edge="1">
          <mxGeometry relative="1" as="geometry">
            <mxPoint x="840" y="3667" as="sourcePoint" />
            <mxPoint x="840" y="3720" as="targetPoint" />
          </mxGeometry>
        </mxCell>
        <mxCell id="92" value="" style="edgeStyle=elbowEdgeStyle;strokeWidth=2;rounded=0;endArrow=none;startArrow=none;startSize=10;endSize=10;dashed=0;html=1;strokeColor=#23445D;fontSize=18;fontColor=#F08705;startFill=0;endFill=0;fontStyle=0" parent="1" source="31" target="46" edge="1">
          <mxGeometry relative="1" as="geometry">
            <mxPoint x="850" y="3677" as="sourcePoint" />
            <mxPoint x="850" y="3730" as="targetPoint" />
          </mxGeometry>
        </mxCell>
        <mxCell id="93" value="" style="edgeStyle=elbowEdgeStyle;strokeWidth=2;rounded=0;endArrow=none;startArrow=none;startSize=10;endSize=10;dashed=0;html=1;strokeColor=#23445D;fontSize=18;fontColor=#F08705;startFill=0;endFill=0;fontStyle=0" parent="1" source="32" target="46" edge="1">
          <mxGeometry relative="1" as="geometry">
            <mxPoint x="860" y="3687" as="sourcePoint" />
            <mxPoint x="860" y="3740" as="targetPoint" />
          </mxGeometry>
        </mxCell>
        <mxCell id="94" value="" style="edgeStyle=elbowEdgeStyle;strokeWidth=2;rounded=0;endArrow=none;startArrow=none;startSize=10;endSize=10;dashed=0;html=1;strokeColor=#23445D;fontSize=18;fontColor=#F08705;startFill=0;endFill=0;fontStyle=0" parent="1" source="36" target="48" edge="1">
          <mxGeometry relative="1" as="geometry">
            <mxPoint x="840" y="3859" as="sourcePoint" />
            <mxPoint x="840" y="3889" as="targetPoint" />
          </mxGeometry>
        </mxCell>
        <mxCell id="95" value="" style="edgeStyle=elbowEdgeStyle;strokeWidth=2;rounded=0;endArrow=none;startArrow=none;startSize=10;endSize=10;dashed=0;html=1;strokeColor=#23445D;fontSize=18;fontColor=#F08705;startFill=0;endFill=0;fontStyle=0" parent="1" source="37" target="48" edge="1">
          <mxGeometry relative="1" as="geometry">
            <mxPoint x="590" y="4044" as="sourcePoint" />
            <mxPoint x="590" y="4084" as="targetPoint" />
          </mxGeometry>
        </mxCell>
        <mxCell id="96" value="" style="edgeStyle=elbowEdgeStyle;strokeWidth=2;rounded=0;endArrow=none;startArrow=none;startSize=10;endSize=10;dashed=0;html=1;strokeColor=#23445D;fontSize=18;fontColor=#F08705;startFill=0;endFill=0;fontStyle=0" parent="1" source="38" target="48" edge="1">
          <mxGeometry relative="1" as="geometry">
            <mxPoint x="600" y="4054" as="sourcePoint" />
            <mxPoint x="600" y="4094" as="targetPoint" />
          </mxGeometry>
        </mxCell>
        <mxCell id="98" value="" style="edgeStyle=elbowEdgeStyle;strokeWidth=2;rounded=0;endArrow=none;startArrow=none;startSize=10;endSize=10;dashed=0;html=1;strokeColor=#23445D;fontSize=18;fontColor=#F08705;startFill=0;endFill=0;fontStyle=0" parent="1" source="40" target="48" edge="1">
          <mxGeometry relative="1" as="geometry">
            <mxPoint x="790" y="4054" as="sourcePoint" />
            <mxPoint x="790" y="4094" as="targetPoint" />
          </mxGeometry>
        </mxCell>
        <mxCell id="99" value="" style="edgeStyle=elbowEdgeStyle;strokeWidth=2;rounded=0;endArrow=none;startArrow=none;startSize=10;endSize=10;dashed=0;html=1;strokeColor=#23445D;fontSize=18;fontColor=#F08705;startFill=0;endFill=0;fontStyle=0" parent="1" source="41" target="48" edge="1">
          <mxGeometry relative="1" as="geometry">
            <mxPoint x="1025" y="4044" as="sourcePoint" />
            <mxPoint x="1025" y="4084" as="targetPoint" />
          </mxGeometry>
        </mxCell>
        <mxCell id="101" value="" style="edgeStyle=elbowEdgeStyle;strokeWidth=2;rounded=0;endArrow=none;startArrow=none;startSize=10;endSize=10;dashed=0;html=1;strokeColor=#23445D;fontSize=18;fontColor=#F08705;startFill=0;endFill=0;fontStyle=0" parent="1" source="43" target="48" edge="1">
          <mxGeometry relative="1" as="geometry">
            <mxPoint x="1045" y="4064" as="sourcePoint" />
            <mxPoint x="1045" y="4104" as="targetPoint" />
          </mxGeometry>
        </mxCell>
        <mxCell id="102" value="" style="edgeStyle=elbowEdgeStyle;strokeWidth=2;rounded=0;endArrow=none;startArrow=none;startSize=10;endSize=10;dashed=0;html=1;strokeColor=#23445D;fontSize=18;fontColor=#F08705;startFill=0;endFill=0;fontStyle=0" parent="1" source="44" target="48" edge="1">
          <mxGeometry relative="1" as="geometry">
            <mxPoint x="1055" y="4074" as="sourcePoint" />
            <mxPoint x="1055" y="4114" as="targetPoint" />
          </mxGeometry>
        </mxCell>
        <mxCell id="103" value="" style="edgeStyle=elbowEdgeStyle;strokeWidth=2;rounded=0;endArrow=none;startArrow=none;startSize=10;endSize=10;dashed=0;html=1;strokeColor=#23445D;fontSize=18;fontColor=#F08705;startFill=0;endFill=0;fontStyle=0" parent="1" source="82" target="48" edge="1">
          <mxGeometry relative="1" as="geometry">
            <mxPoint x="1065" y="4084" as="sourcePoint" />
            <mxPoint x="1065" y="4124" as="targetPoint" />
          </mxGeometry>
        </mxCell>
        <mxCell id="104" value="" style="edgeStyle=elbowEdgeStyle;strokeWidth=2;rounded=0;endArrow=none;startArrow=none;startSize=10;endSize=10;dashed=0;html=1;strokeColor=#23445D;fontSize=18;fontColor=#F08705;startFill=0;endFill=0;fontStyle=0" parent="1" source="33" target="47" edge="1">
          <mxGeometry relative="1" as="geometry">
            <mxPoint x="1075" y="4094" as="sourcePoint" />
            <mxPoint x="1075" y="4134" as="targetPoint" />
          </mxGeometry>
        </mxCell>
        <mxCell id="105" value="" style="edgeStyle=elbowEdgeStyle;strokeWidth=2;rounded=0;endArrow=none;startArrow=none;startSize=10;endSize=10;dashed=0;html=1;strokeColor=#23445D;fontSize=18;fontColor=#F08705;startFill=0;endFill=0;fontStyle=0" parent="1" source="34" target="47" edge="1">
          <mxGeometry relative="1" as="geometry">
            <mxPoint x="1260" y="3859" as="sourcePoint" />
            <mxPoint x="1260" y="3889" as="targetPoint" />
          </mxGeometry>
        </mxCell>
        <mxCell id="106" value="" style="edgeStyle=elbowEdgeStyle;strokeWidth=2;rounded=0;endArrow=none;startArrow=none;startSize=10;endSize=10;dashed=0;html=1;strokeColor=#23445D;fontSize=18;fontColor=#F08705;startFill=0;endFill=0;fontStyle=0" parent="1" source="35" target="47" edge="1">
          <mxGeometry relative="1" as="geometry">
            <mxPoint x="1270" y="3869" as="sourcePoint" />
            <mxPoint x="1270" y="3899" as="targetPoint" />
          </mxGeometry>
        </mxCell>
        <mxCell id="107" value="" style="edgeStyle=elbowEdgeStyle;strokeWidth=2;rounded=0;endArrow=none;startArrow=none;startSize=10;endSize=10;dashed=0;html=1;strokeColor=#23445D;fontSize=18;fontColor=#F08705;startFill=0;endFill=0;fontStyle=0" parent="1" source="52" target="47" edge="1">
          <mxGeometry relative="1" as="geometry">
            <mxPoint x="1280" y="3879" as="sourcePoint" />
            <mxPoint x="1280" y="3909" as="targetPoint" />
          </mxGeometry>
        </mxCell>
        <mxCell id="108" style="edgeStyle=none;rounded=0;html=1;startArrow=none;startFill=0;endArrow=none;endFill=0;fontSize=18;fontColor=#F08705;strokeColor=#23445D;strokeWidth=2;fontStyle=0" parent="1" source="51" target="17" edge="1">
          <mxGeometry relative="1" as="geometry" />
        </mxCell>
        <mxCell id="109" style="edgeStyle=orthogonalEdgeStyle;rounded=0;html=1;startArrow=none;startFill=0;endArrow=none;endFill=0;fontSize=18;fontColor=#F08705;strokeColor=#23445D;strokeWidth=2;curved=1;fontStyle=0" parent="1" source="52" target="18" edge="1">
          <mxGeometry relative="1" as="geometry">
            <Array as="points">
              <mxPoint x="1694" y="3801" />
              <mxPoint x="1694" y="3740" />
            </Array>
          </mxGeometry>
        </mxCell>
        <mxCell id="111" value="" style="image;html=1;image=img/lib/clip_art/computers/Laptop_128x128.png;shadow=0;strokeColor=#000000;fillColor=#FFFFFF;gradientColor=none;fontSize=18;fontColor=#F08705;fontStyle=0" parent="1" vertex="1">
          <mxGeometry x="19" y="1902" width="80" height="80" as="geometry" />
        </mxCell>
        <mxCell id="112" value="" style="image;html=1;image=img/lib/clip_art/computers/Laptop_128x128.png;shadow=0;strokeColor=#000000;fillColor=#FFFFFF;gradientColor=none;fontSize=18;fontColor=#F08705;fontStyle=0" parent="1" vertex="1">
          <mxGeometry x="99" y="1902" width="80" height="80" as="geometry" />
        </mxCell>
        <mxCell id="113" value="" style="image;html=1;image=img/lib/clip_art/computers/Laptop_128x128.png;shadow=0;strokeColor=#000000;fillColor=#FFFFFF;gradientColor=none;fontSize=18;fontColor=#F08705;fontStyle=0" parent="1" vertex="1">
          <mxGeometry x="109" y="1982" width="80" height="80" as="geometry" />
        </mxCell>
        <mxCell id="114" value="" style="image;html=1;image=img/lib/clip_art/computers/Laptop_128x128.png;shadow=0;strokeColor=#000000;fillColor=#FFFFFF;gradientColor=none;fontSize=18;fontColor=#F08705;fontStyle=0" parent="1" vertex="1">
          <mxGeometry x="204" y="1963" width="80" height="80" as="geometry" />
        </mxCell>
        <mxCell id="115" style="edgeStyle=orthogonalEdgeStyle;rounded=0;html=1;startArrow=none;startFill=0;endArrow=none;endFill=0;fontSize=18;fontColor=#F08705;strokeColor=#23445D;strokeWidth=2;curved=1;fontStyle=0" parent="1" source="23" target="49" edge="1">
          <mxGeometry relative="1" as="geometry" />
        </mxCell>
        <mxCell id="117" style="edgeStyle=orthogonalEdgeStyle;rounded=0;html=1;startArrow=none;startFill=0;endArrow=none;endFill=0;fontSize=18;fontColor=#F08705;strokeColor=#23445D;strokeWidth=2;curved=1;fontStyle=0" parent="1" source="55" target="79" edge="1">
          <mxGeometry relative="1" as="geometry">
            <Array as="points">
              <mxPoint x="500" y="4160" />
              <mxPoint x="500" y="4023" />
            </Array>
          </mxGeometry>
        </mxCell>
        <mxCell id="118" style="edgeStyle=orthogonalEdgeStyle;rounded=0;html=1;startArrow=none;startFill=0;endArrow=none;endFill=0;fontSize=18;fontColor=#F08705;strokeColor=#23445D;strokeWidth=2;curved=1;fontStyle=0" parent="1" source="55" target="80" edge="1">
          <mxGeometry relative="1" as="geometry">
            <Array as="points">
              <mxPoint x="490" y="4160" />
              <mxPoint x="490" y="4119" />
            </Array>
          </mxGeometry>
        </mxCell>
        <mxCell id="119" style="edgeStyle=orthogonalEdgeStyle;rounded=0;html=1;startArrow=none;startFill=0;endArrow=none;endFill=0;fontSize=18;fontColor=#F08705;strokeColor=#23445D;strokeWidth=2;curved=1;fontStyle=0" parent="1" source="55" target="81" edge="1">
          <mxGeometry relative="1" as="geometry">
            <Array as="points">
              <mxPoint x="500" y="4160" />
              <mxPoint x="500" y="4213" />
            </Array>
          </mxGeometry>
        </mxCell>
        <mxCell id="120" value="" style="edgeStyle=elbowEdgeStyle;strokeWidth=2;rounded=0;endArrow=none;startArrow=none;startSize=10;endSize=10;dashed=0;html=1;strokeColor=#23445D;fontSize=18;fontColor=#F08705;startFill=0;endFill=0;fontStyle=0" parent="1" source="48" target="53" edge="1">
          <mxGeometry relative="1" as="geometry">
            <mxPoint x="779.7619047619048" y="4044.476190476191" as="sourcePoint" />
            <mxPoint x="779.7619047619048" y="4083.7619047619046" as="targetPoint" />
          </mxGeometry>
        </mxCell>
        <mxCell id="121" value="" style="edgeStyle=elbowEdgeStyle;strokeWidth=2;rounded=0;endArrow=none;startArrow=none;startSize=10;endSize=10;dashed=0;html=1;strokeColor=#23445D;fontSize=18;fontColor=#F08705;startFill=0;endFill=0;fontStyle=0" parent="1" source="48" target="54" edge="1">
          <mxGeometry relative="1" as="geometry">
            <mxPoint x="940.4761904761904" y="4104" as="sourcePoint" />
            <mxPoint x="940.4761904761904" y="4169.476190476191" as="targetPoint" />
          </mxGeometry>
        </mxCell>
        <mxCell id="122" style="edgeStyle=orthogonalEdgeStyle;rounded=0;html=1;startArrow=none;startFill=0;endArrow=none;endFill=0;fontSize=18;fontColor=#F08705;strokeColor=#23445D;strokeWidth=2;curved=1;fontStyle=0" parent="1" source="114" edge="1">
          <mxGeometry relative="1" as="geometry">
            <Array as="points">
              <mxPoint x="254" y="1952" />
              <mxPoint x="254" y="1952" />
            </Array>
            <mxPoint x="254.00000000000045" y="1842" as="targetPoint" />
          </mxGeometry>
        </mxCell>
        <mxCell id="123" style="edgeStyle=orthogonalEdgeStyle;rounded=0;html=1;startArrow=none;startFill=0;endArrow=none;endFill=0;fontSize=18;fontColor=#F08705;strokeColor=#23445D;strokeWidth=2;curved=1;fontStyle=0" parent="1" source="113" edge="1">
          <mxGeometry relative="1" as="geometry">
            <Array as="points">
              <mxPoint x="194" y="2022" />
              <mxPoint x="194" y="1912" />
              <mxPoint x="254" y="1912" />
            </Array>
            <mxPoint x="254.00000000000045" y="1842" as="targetPoint" />
          </mxGeometry>
        </mxCell>
        <mxCell id="124" style="edgeStyle=orthogonalEdgeStyle;rounded=0;html=1;startArrow=none;startFill=0;endArrow=none;endFill=0;fontSize=18;fontColor=#F08705;strokeColor=#23445D;strokeWidth=2;curved=1;fontStyle=0" parent="1" source="112" edge="1">
          <mxGeometry relative="1" as="geometry">
            <Array as="points">
              <mxPoint x="139" y="1822" />
            </Array>
            <mxPoint x="202.03847577293345" y="1822" as="targetPoint" />
          </mxGeometry>
        </mxCell>
        <mxCell id="125" style="edgeStyle=orthogonalEdgeStyle;rounded=0;html=1;startArrow=none;startFill=0;endArrow=none;endFill=0;fontSize=18;fontColor=#F08705;strokeColor=#23445D;strokeWidth=2;curved=1;fontStyle=0" parent="1" source="111" edge="1">
          <mxGeometry relative="1" as="geometry">
            <Array as="points">
              <mxPoint x="59" y="1802" />
            </Array>
            <mxPoint x="194" y="1802" as="targetPoint" />
          </mxGeometry>
        </mxCell>
        <mxCell id="126" style="edgeStyle=none;rounded=0;html=1;startArrow=none;startFill=0;endArrow=none;endFill=0;fontSize=18;fontColor=#F08705;strokeColor=#23445D;strokeWidth=2;fontStyle=0" parent="1" source="54" target="56" edge="1">
          <mxGeometry relative="1" as="geometry" />
        </mxCell>
        <mxCell id="127" style="edgeStyle=orthogonalEdgeStyle;rounded=0;html=1;startArrow=none;startFill=0;endArrow=none;endFill=0;fontSize=18;fontColor=#F08705;strokeColor=#23445D;strokeWidth=2;curved=1;fontStyle=0" parent="1" source="78" target="56" edge="1">
          <mxGeometry relative="1" as="geometry">
            <Array as="points">
              <mxPoint x="1750" y="4149" />
              <mxPoint x="1750" y="4004" />
            </Array>
          </mxGeometry>
        </mxCell>
        <mxCell id="128" style="edgeStyle=orthogonalEdgeStyle;rounded=0;html=1;startArrow=none;startFill=0;endArrow=none;endFill=0;fontSize=18;fontColor=#F08705;strokeColor=#23445D;strokeWidth=2;curved=1;fontStyle=0" parent="1" source="77" target="56" edge="1">
          <mxGeometry relative="1" as="geometry" />
        </mxCell>
        <mxCell id="129" style="edgeStyle=orthogonalEdgeStyle;rounded=0;html=1;startArrow=none;startFill=0;endArrow=none;endFill=0;fontSize=18;fontColor=#F08705;strokeColor=#23445D;strokeWidth=2;curved=1;fontStyle=0" parent="1" source="76" target="56" edge="1">
          <mxGeometry relative="1" as="geometry" />
        </mxCell>
        <mxCell id="134" value="" style="edgeStyle=elbowEdgeStyle;strokeWidth=2;rounded=0;endArrow=none;startArrow=none;startSize=10;endSize=10;dashed=0;html=1;strokeColor=#23445D;fontSize=18;fontColor=#F08705;startFill=0;endFill=0;fontStyle=0" parent="1" target="70" edge="1">
          <mxGeometry relative="1" as="geometry">
            <mxPoint x="1513.3333333333335" y="1668" as="sourcePoint" />
            <mxPoint x="949.4761904761904" y="1308.7619047619048" as="targetPoint" />
          </mxGeometry>
        </mxCell>
        <mxCell id="140" value="" style="edgeStyle=elbowEdgeStyle;strokeWidth=2;rounded=0;endArrow=none;startArrow=none;startSize=10;endSize=10;dashed=0;html=1;strokeColor=#23445D;fontSize=18;fontColor=#F08705;startFill=0;endFill=0;fontStyle=0" parent="1" source="73" target="74" edge="1">
          <mxGeometry relative="1" as="geometry">
            <mxPoint x="1875.5867768595044" y="1552.9669421487604" as="sourcePoint" />
            <mxPoint x="1875.5867768595044" y="1596.7685950413222" as="targetPoint" />
          </mxGeometry>
        </mxCell>
        <mxCell id="143" value="" style="edgeStyle=elbowEdgeStyle;strokeWidth=2;rounded=0;endArrow=none;startArrow=none;startSize=10;endSize=10;dashed=0;html=1;strokeColor=#23445D;fontSize=18;fontColor=#F08705;startFill=0;endFill=0;fontStyle=0" parent="1" target="62" edge="1">
          <mxGeometry relative="1" as="geometry">
            <mxPoint x="635" y="1670" as="sourcePoint" />
            <mxPoint x="780.0826446280992" y="1279.3719008264463" as="targetPoint" />
          </mxGeometry>
        </mxCell>
        <mxCell id="144" value="" style="edgeStyle=elbowEdgeStyle;strokeWidth=2;rounded=0;endArrow=none;startArrow=none;startSize=10;endSize=10;dashed=0;html=1;strokeColor=#23445D;fontSize=18;fontColor=#F08705;startFill=0;endFill=0;fontStyle=0" parent="1" target="62" edge="1">
          <mxGeometry relative="1" as="geometry">
            <mxPoint x="725" y="1670" as="sourcePoint" />
            <mxPoint x="645.3719008264463" y="1709.9504132231405" as="targetPoint" />
          </mxGeometry>
        </mxCell>
        <mxCell id="145" value="" style="edgeStyle=elbowEdgeStyle;strokeWidth=2;rounded=0;endArrow=none;startArrow=none;startSize=10;endSize=10;dashed=0;html=1;strokeColor=#23445D;fontSize=18;fontColor=#F08705;startFill=0;endFill=0;fontStyle=0;entryX=0;entryY=0;entryDx=340;entryDy=0;entryPerimeter=0;" parent="1" target="62" edge="1">
          <mxGeometry relative="1" as="geometry">
            <mxPoint x="936" y="1670" as="sourcePoint" />
            <mxPoint x="936" y="1700" as="targetPoint" />
          </mxGeometry>
        </mxCell>
        <mxCell id="147" value="" style="edgeStyle=elbowEdgeStyle;strokeWidth=2;rounded=0;endArrow=none;startArrow=none;startSize=10;endSize=10;dashed=0;html=1;strokeColor=#23445D;fontSize=18;fontColor=#F08705;startFill=0;endFill=0;fontStyle=0" parent="1" source="63" target="66" edge="1">
          <mxGeometry relative="1" as="geometry">
            <mxPoint x="-464.37190082644634" y="1936.198347107438" as="sourcePoint" />
            <mxPoint x="-464.37190082644634" y="1965.9504132231405" as="targetPoint" />
          </mxGeometry>
        </mxCell>
        <mxCell id="148" value="" style="edgeStyle=elbowEdgeStyle;strokeWidth=2;rounded=0;endArrow=none;startArrow=none;startSize=10;endSize=10;dashed=0;html=1;strokeColor=#23445D;fontSize=18;fontColor=#F08705;startFill=0;endFill=0;fontStyle=0" parent="1" source="64" target="66" edge="1">
          <mxGeometry relative="1" as="geometry">
            <mxPoint x="-454.37190082644634" y="1946.198347107438" as="sourcePoint" />
            <mxPoint x="-454.37190082644634" y="1975.9504132231405" as="targetPoint" />
          </mxGeometry>
        </mxCell>
        <mxCell id="149" value="" style="edgeStyle=elbowEdgeStyle;strokeWidth=2;rounded=0;endArrow=none;startArrow=none;startSize=10;endSize=10;dashed=0;html=1;strokeColor=#23445D;fontSize=18;fontColor=#F08705;startFill=0;endFill=0;fontStyle=0" parent="1" source="65" target="66" edge="1">
          <mxGeometry relative="1" as="geometry">
            <mxPoint x="-444.37190082644634" y="1956.198347107438" as="sourcePoint" />
            <mxPoint x="-444.37190082644634" y="1985.9504132231405" as="targetPoint" />
          </mxGeometry>
        </mxCell>
        <mxCell id="150" value="" style="edgeStyle=elbowEdgeStyle;strokeWidth=2;rounded=0;endArrow=none;startArrow=none;startSize=10;endSize=10;dashed=0;html=1;strokeColor=#23445D;fontSize=18;fontColor=#F08705;startFill=0;endFill=0;fontStyle=0" parent="1" source="75" target="66" edge="1">
          <mxGeometry relative="1" as="geometry">
            <mxPoint x="-434.37190082644634" y="1966.198347107438" as="sourcePoint" />
            <mxPoint x="-434.37190082644634" y="1995.9504132231405" as="targetPoint" />
          </mxGeometry>
        </mxCell>
        <mxCell id="153" value="" style="edgeStyle=elbowEdgeStyle;strokeWidth=2;rounded=0;endArrow=none;startArrow=none;startSize=10;endSize=10;dashed=0;html=1;strokeColor=#23445D;fontSize=18;fontColor=#F08705;startFill=0;endFill=0;fontStyle=0" parent="1" source="48" target="55" edge="1">
          <mxGeometry relative="1" as="geometry">
            <mxPoint x="780.4878048780488" y="4043.6341463414637" as="sourcePoint" />
            <mxPoint x="780.4878048780488" y="4083.878048780488" as="targetPoint" />
          </mxGeometry>
        </mxCell>
        <mxCell id="154" value="" style="image;html=1;image=img/lib/clip_art/networking/Router_128x128.png;shadow=0;strokeColor=#000000;fillColor=#FFFFFF;gradientColor=none;fontSize=18;fontColor=#F08705;fontStyle=0" parent="1" vertex="1">
          <mxGeometry x="520" y="3954" width="80" height="80" as="geometry" />
        </mxCell>
        <mxCell id="155" value="" style="edgeStyle=elbowEdgeStyle;strokeWidth=2;rounded=0;endArrow=none;startArrow=none;startSize=10;endSize=10;dashed=0;html=1;strokeColor=#23445D;fontSize=18;fontColor=#F08705;startFill=0;endFill=0;fontStyle=0" parent="1" source="154" target="48" edge="1">
          <mxGeometry relative="1" as="geometry">
            <mxPoint x="717.5797101449277" y="3871.68115942029" as="sourcePoint" />
            <mxPoint x="575.2926829268292" y="4073.7560975609754" as="targetPoint" />
          </mxGeometry>
        </mxCell>
        <mxCell id="160" value="" style="image;html=1;image=img/lib/clip_art/networking/UPS_128x128.png;shadow=0;strokeColor=#000000;fillColor=#F2F2F2;gradientColor=none;fontSize=18;fontColor=#F08705;fontStyle=0" parent="1" vertex="1">
          <mxGeometry x="1510" y="4139" width="80" height="80" as="geometry" />
        </mxCell>
        <mxCell id="161" style="edgeStyle=orthogonalEdgeStyle;rounded=0;jumpStyle=none;html=1;exitX=0.5;exitY=1;entryX=1;entryY=0.5;shadow=0;labelBackgroundColor=#ffffff;startArrow=none;startFill=0;endArrow=none;endFill=0;endSize=10;jettySize=auto;orthogonalLoop=1;strokeColor=#2F5B7C;strokeWidth=2;fillColor=#F08705;fontFamily=Helvetica;fontSize=14;fontColor=#F08705;align=left;curved=1;" parent="1" source="162" target="46" edge="1">
          <mxGeometry relative="1" as="geometry" />
        </mxCell>
        <mxCell id="162" value="" style="image;html=1;image=img/lib/clip_art/networking/Concentrator_128x128.png;shadow=0;strokeColor=#000000;fillColor=#F2F2F2;gradientColor=none;fontSize=18;fontColor=#F08705;fontStyle=0" parent="1" vertex="1">
          <mxGeometry x="1100" y="3769" width="80" height="80" as="geometry" />
        </mxCell>
        <mxCell id="163" style="edgeStyle=orthogonalEdgeStyle;rounded=0;html=1;entryX=1;entryY=0.5;startArrow=none;startFill=0;endArrow=none;endFill=0;fontSize=18;fontColor=#F08705;strokeColor=#23445D;strokeWidth=2;curved=1;fontStyle=0" parent="1" source="162" target="20" edge="1">
          <mxGeometry relative="1" as="geometry">
            <Array as="points">
              <mxPoint x="1130" y="3720" />
            </Array>
          </mxGeometry>
        </mxCell>
        <mxCell id="164" style="edgeStyle=orthogonalEdgeStyle;rounded=0;html=1;entryX=0;entryY=0.5;startArrow=none;startFill=0;endArrow=none;endFill=0;fontSize=18;fontColor=#F08705;strokeColor=#23445D;strokeWidth=2;curved=1;fontStyle=0" parent="1" source="162" target="45" edge="1">
          <mxGeometry relative="1" as="geometry">
            <Array as="points">
              <mxPoint x="1150" y="3720" />
            </Array>
          </mxGeometry>
        </mxCell>
        <mxCell id="165" style="edgeStyle=orthogonalEdgeStyle;rounded=0;html=1;entryX=0;entryY=0.5;startArrow=none;startFill=0;endArrow=none;endFill=0;fontSize=18;fontColor=#F08705;strokeColor=#23445D;strokeWidth=2;curved=1;fontStyle=0" parent="1" source="162" target="47" edge="1">
          <mxGeometry relative="1" as="geometry">
            <Array as="points">
              <mxPoint x="1150" y="3889" />
            </Array>
          </mxGeometry>
        </mxCell>
        <mxCell id="166" value="" style="edgeStyle=elbowEdgeStyle;strokeWidth=2;rounded=0;endArrow=none;startArrow=none;startSize=10;endSize=10;dashed=0;html=1;strokeColor=#23445D;fontSize=18;fontColor=#F08705;startFill=0;endFill=0;fontStyle=0" parent="1" source="48" target="160" edge="1">
          <mxGeometry relative="1" as="geometry">
            <mxPoint x="1454.8780487804877" y="4053.390243902439" as="sourcePoint" />
            <mxPoint x="1454.8780487804877" y="4083.878048780488" as="targetPoint" />
          </mxGeometry>
        </mxCell>
        <mxCell id="167" value="HEAD&amp;nbsp;&lt;div&gt;OFFICE&lt;/div&gt;" style="text;html=1;strokeColor=none;fillColor=none;align=center;verticalAlign=middle;whiteSpace=wrap;overflow=hidden;shadow=0;fontSize=36;fontColor=#AE4132;fontStyle=0" parent="1" vertex="1">
          <mxGeometry x="981" y="910" width="240" height="110" as="geometry" />
        </mxCell>
        <mxCell id="169" value="" style="image;html=1;image=img/lib/clip_art/computers/Workstation_128x128.png;shadow=0;strokeColor=#000000;fillColor=#FFFFFF;gradientColor=none;fontSize=18;fontColor=#F08705;fontStyle=0" parent="1" vertex="1">
          <mxGeometry x="1810" y="3801" width="80" height="80" as="geometry" />
        </mxCell>
        <mxCell id="170" style="edgeStyle=orthogonalEdgeStyle;rounded=0;html=1;startArrow=none;startFill=0;endArrow=none;endFill=0;fontSize=18;fontColor=#F08705;strokeColor=#23445D;strokeWidth=2;curved=1;fontStyle=0" parent="1" source="169" target="56" edge="1">
          <mxGeometry relative="1" as="geometry">
            <mxPoint x="1710.5882352941178" y="3913.529411764706" as="targetPoint" />
            <Array as="points">
              <mxPoint x="1750" y="3840" />
              <mxPoint x="1750" y="4004" />
            </Array>
          </mxGeometry>
        </mxCell>
        <mxCell id="171" style="edgeStyle=orthogonalEdgeStyle;rounded=0;jumpStyle=none;html=1;exitX=0;exitY=0.5;entryX=0;entryY=0.5;shadow=0;labelBackgroundColor=none;startArrow=none;startFill=0;endArrow=classic;endFill=1;endSize=6;jettySize=auto;orthogonalLoop=1;strokeColor=#23445D;strokeWidth=2;fillColor=#F08705;fontFamily=Helvetica;fontSize=14;fontColor=#F08705;align=left;fontStyle=0" parent="1" edge="1">
          <mxGeometry relative="1" as="geometry">
            <mxPoint x="60" y="-757.5" as="sourcePoint" />
            <mxPoint x="60" y="-757.5" as="targetPoint" />
          </mxGeometry>
        </mxCell>
        <mxCell id="172" style="edgeStyle=orthogonalEdgeStyle;rounded=0;jumpStyle=none;html=1;exitX=0.75;exitY=0;entryX=0.75;entryY=0;shadow=0;labelBackgroundColor=none;startArrow=none;startFill=0;endArrow=classic;endFill=1;endSize=6;jettySize=auto;orthogonalLoop=1;strokeColor=#23445D;strokeWidth=2;fillColor=#F08705;fontFamily=Helvetica;fontSize=14;fontColor=#FFFFFF;align=left;fontStyle=0" parent="1" source="27" target="27" edge="1">
          <mxGeometry relative="1" as="geometry" />
        </mxCell>
        <mxCell id="NxGeEWuJcDEcd79jNJc8-172" value="CTI" style="image;html=1;image=img/lib/clip_art/networking/Bridge_128x128.png;shadow=0;strokeColor=#000000;fillColor=#FFFFFF;gradientColor=none;fontSize=18;fontColor=#F08705;fontStyle=0" vertex="1" parent="1">
          <mxGeometry x="803" y="-810" width="80" height="80" as="geometry" />
        </mxCell>
        <mxCell id="NxGeEWuJcDEcd79jNJc8-173" value="IT" style="image;html=1;image=img/lib/clip_art/networking/Bridge_128x128.png;shadow=0;strokeColor=#000000;fillColor=#FFFFFF;gradientColor=none;fontSize=18;fontColor=#F08705;fontStyle=0" vertex="1" parent="1">
          <mxGeometry x="923" y="-810" width="80" height="80" as="geometry" />
        </mxCell>
        <mxCell id="NxGeEWuJcDEcd79jNJc8-174" value="IA" style="image;html=1;image=img/lib/clip_art/networking/Bridge_128x128.png;shadow=0;strokeColor=#000000;fillColor=#FFFFFF;gradientColor=none;fontSize=18;fontColor=#F08705;fontStyle=0" vertex="1" parent="1">
          <mxGeometry x="330" y="-120" width="80" height="80" as="geometry" />
        </mxCell>
        <mxCell id="NxGeEWuJcDEcd79jNJc8-175" value="SC" style="image;html=1;image=img/lib/clip_art/networking/Bridge_128x128.png;shadow=0;strokeColor=#000000;fillColor=#FFFFFF;gradientColor=none;fontSize=18;fontColor=#F08705;fontStyle=0" vertex="1" parent="1">
          <mxGeometry x="400" y="-510" width="80" height="80" as="geometry" />
        </mxCell>
        <mxCell id="NxGeEWuJcDEcd79jNJc8-176" value="TH" style="image;html=1;image=img/lib/clip_art/networking/Bridge_128x128.png;shadow=0;strokeColor=#000000;fillColor=#FFFFFF;gradientColor=none;fontSize=18;fontColor=#F08705;fontStyle=0" vertex="1" parent="1">
          <mxGeometry x="1200" y="-270" width="80" height="80" as="geometry" />
        </mxCell>
        <mxCell id="NxGeEWuJcDEcd79jNJc8-177" value="DAF" style="image;html=1;image=img/lib/clip_art/networking/Bridge_128x128.png;shadow=0;strokeColor=#000000;fillColor=#FFFFFF;gradientColor=none;fontSize=18;fontColor=#F08705;fontStyle=0" vertex="1" parent="1">
          <mxGeometry x="1195" y="-160" width="80" height="80" as="geometry" />
        </mxCell>
        <mxCell id="NxGeEWuJcDEcd79jNJc8-179" value="AI" style="image;html=1;image=img/lib/clip_art/networking/Router_128x128.png;shadow=0;strokeColor=#000000;fillColor=#FFFFFF;gradientColor=none;fontSize=18;fontColor=#F08705;fontStyle=0" vertex="1" parent="1">
          <mxGeometry x="603" y="-200" width="80" height="80" as="geometry" />
        </mxCell>
        <mxCell id="NxGeEWuJcDEcd79jNJc8-180" value="ATC" style="image;html=1;image=img/lib/clip_art/networking/Router_128x128.png;shadow=0;strokeColor=#000000;fillColor=#FFFFFF;gradientColor=none;fontSize=18;fontColor=#F08705;fontStyle=0" vertex="1" parent="1">
          <mxGeometry x="603" y="-100" width="80" height="80" as="geometry" />
        </mxCell>
        <mxCell id="NxGeEWuJcDEcd79jNJc8-181" value="" style="image;html=1;image=img/lib/clip_art/networking/Router_128x128.png;shadow=0;strokeColor=#000000;fillColor=#FFFFFF;gradientColor=none;fontSize=18;fontColor=#F08705;fontStyle=0" vertex="1" parent="1">
          <mxGeometry x="743" y="-715" width="80" height="80" as="geometry" />
        </mxCell>
        <mxCell id="NxGeEWuJcDEcd79jNJc8-183" value="DPCG" style="image;html=1;image=img/lib/clip_art/networking/Router_128x128.png;shadow=0;strokeColor=#000000;fillColor=#FFFFFF;gradientColor=none;fontSize=18;fontColor=#F08705;fontStyle=0" vertex="1" parent="1">
          <mxGeometry x="1011" y="-150" width="80" height="80" as="geometry" />
        </mxCell>
        <mxCell id="NxGeEWuJcDEcd79jNJc8-184" value="URB" style="image;html=1;image=img/lib/clip_art/networking/Router_128x128.png;shadow=0;strokeColor=#000000;fillColor=#FFFFFF;gradientColor=none;fontSize=18;fontColor=#F08705;fontStyle=0" vertex="1" parent="1">
          <mxGeometry x="600" width="80" height="80" as="geometry" />
        </mxCell>
        <mxCell id="NxGeEWuJcDEcd79jNJc8-185" value="TH" style="image;html=1;image=img/lib/clip_art/networking/Router_128x128.png;shadow=0;strokeColor=#000000;fillColor=#FFFFFF;gradientColor=none;fontSize=18;fontColor=#F08705;fontStyle=0" vertex="1" parent="1">
          <mxGeometry x="1043" y="-330" width="80" height="80" as="geometry" />
        </mxCell>
        <mxCell id="NxGeEWuJcDEcd79jNJc8-186" value="" style="edgeStyle=elbowEdgeStyle;strokeWidth=2;rounded=0;endArrow=none;startArrow=none;startSize=10;endSize=10;dashed=0;html=1;strokeColor=#23445D;fontSize=18;fontColor=#F08705;startFill=0;endFill=0;fontStyle=0" edge="1" parent="1" target="NxGeEWuJcDEcd79jNJc8-182">
          <mxGeometry relative="1" as="geometry">
            <mxPoint x="440" y="354" as="sourcePoint" />
            <mxPoint x="440" y="733" as="targetPoint" />
          </mxGeometry>
        </mxCell>
        <mxCell id="NxGeEWuJcDEcd79jNJc8-182" value="" style="image;html=1;image=img/lib/clip_art/networking/Router_128x128.png;shadow=0;strokeColor=#000000;fillColor=#FFFFFF;gradientColor=none;fontSize=18;fontColor=#F08705;fontStyle=0" vertex="1" parent="1">
          <mxGeometry x="747" y="210" width="80" height="80" as="geometry" />
        </mxCell>
        <mxCell id="NxGeEWuJcDEcd79jNJc8-187" value="#4063&lt;br&gt;192.168.1.252" style="ellipse;shape=cloud;whiteSpace=wrap;html=1;shadow=0;strokeColor=#23445D;fillColor=#BAC8D3;gradientColor=none;fontSize=18;fontColor=#23445D;fontStyle=0;gradientDirection=north;strokeWidth=2;" vertex="1" parent="1">
          <mxGeometry x="1003" y="-1030" width="120" height="80" as="geometry" />
        </mxCell>
        <mxCell id="NxGeEWuJcDEcd79jNJc8-188" style="edgeStyle=orthogonalEdgeStyle;rounded=0;html=1;startArrow=none;startFill=0;endArrow=none;endFill=0;fontSize=18;fontColor=#F08705;strokeColor=#23445D;strokeWidth=2;curved=1;fontStyle=0" edge="1" parent="1" target="NxGeEWuJcDEcd79jNJc8-187" source="NxGeEWuJcDEcd79jNJc8-173">
          <mxGeometry relative="1" as="geometry">
            <mxPoint x="1163" y="-810" as="sourcePoint" />
          </mxGeometry>
        </mxCell>
        <mxCell id="NxGeEWuJcDEcd79jNJc8-189" value="#0517&lt;br&gt;192.168.1.254" style="ellipse;shape=cloud;whiteSpace=wrap;html=1;shadow=0;strokeColor=#23445D;fillColor=#BAC8D3;gradientColor=none;fontSize=18;fontColor=#23445D;fontStyle=0;gradientDirection=north;strokeWidth=2;" vertex="1" parent="1">
          <mxGeometry x="853" y="-1020" width="120" height="80" as="geometry" />
        </mxCell>
        <mxCell id="NxGeEWuJcDEcd79jNJc8-190" style="edgeStyle=orthogonalEdgeStyle;rounded=0;html=1;startArrow=none;startFill=0;endArrow=none;endFill=0;fontSize=18;fontColor=#F08705;strokeColor=#23445D;strokeWidth=2;curved=1;fontStyle=0" edge="1" parent="1" target="NxGeEWuJcDEcd79jNJc8-189" source="NxGeEWuJcDEcd79jNJc8-172">
          <mxGeometry relative="1" as="geometry">
            <mxPoint x="1013" y="-800" as="sourcePoint" />
          </mxGeometry>
        </mxCell>
        <mxCell id="NxGeEWuJcDEcd79jNJc8-191" value="" style="image;html=1;image=img/lib/clip_art/networking/Router_128x128.png;shadow=0;strokeColor=#000000;fillColor=#FFFFFF;gradientColor=none;fontSize=18;fontColor=#F08705;fontStyle=0" vertex="1" parent="1">
          <mxGeometry x="873" y="-715" width="80" height="80" as="geometry" />
        </mxCell>
        <mxCell id="NxGeEWuJcDEcd79jNJc8-194" style="edgeStyle=orthogonalEdgeStyle;rounded=0;html=1;startArrow=none;startFill=0;endArrow=none;endFill=0;fontSize=18;fontColor=#F08705;strokeColor=#23445D;strokeWidth=2;curved=1;fontStyle=0" edge="1" parent="1" source="NxGeEWuJcDEcd79jNJc8-181" target="23">
          <mxGeometry relative="1" as="geometry">
            <mxPoint x="517.5" y="-645" as="sourcePoint" />
            <mxPoint x="617.5" y="-785" as="targetPoint" />
            <Array as="points">
              <mxPoint x="673" y="-645" />
              <mxPoint x="673" y="-770" />
            </Array>
          </mxGeometry>
        </mxCell>
        <mxCell id="NxGeEWuJcDEcd79jNJc8-196" style="edgeStyle=orthogonalEdgeStyle;rounded=0;html=1;startArrow=none;startFill=0;endArrow=none;endFill=0;fontSize=18;fontColor=#F08705;strokeColor=#23445D;strokeWidth=2;curved=1;fontStyle=0" edge="1" parent="1" source="NxGeEWuJcDEcd79jNJc8-191" target="NxGeEWuJcDEcd79jNJc8-173">
          <mxGeometry relative="1" as="geometry">
            <mxPoint x="959.5" y="-655" as="sourcePoint" />
            <mxPoint x="1059.5" y="-795" as="targetPoint" />
          </mxGeometry>
        </mxCell>
        <mxCell id="NxGeEWuJcDEcd79jNJc8-202" style="edgeStyle=orthogonalEdgeStyle;rounded=0;html=1;startArrow=none;startFill=0;endArrow=none;endFill=0;fontSize=18;fontColor=#F08705;strokeColor=#23445D;strokeWidth=2;curved=1;fontStyle=0;entryX=0.5;entryY=1;entryDx=0;entryDy=0;exitX=0.25;exitY=0;exitDx=0;exitDy=0;" edge="1" parent="1" source="NxGeEWuJcDEcd79jNJc8-185" target="NxGeEWuJcDEcd79jNJc8-191">
          <mxGeometry relative="1" as="geometry">
            <mxPoint x="854.4300000000001" y="-350" as="sourcePoint" />
            <mxPoint x="954.4300000000001" y="-490" as="targetPoint" />
          </mxGeometry>
        </mxCell>
        <mxCell id="NxGeEWuJcDEcd79jNJc8-203" style="edgeStyle=orthogonalEdgeStyle;rounded=0;html=1;startArrow=none;startFill=0;endArrow=none;endFill=0;fontSize=18;fontColor=#F08705;strokeColor=#23445D;strokeWidth=2;curved=1;fontStyle=0;exitX=0;exitY=0;exitDx=0;exitDy=0;entryX=0;entryY=1;entryDx=0;entryDy=0;" edge="1" parent="1" source="NxGeEWuJcDEcd79jNJc8-180" target="84">
          <mxGeometry relative="1" as="geometry">
            <mxPoint x="800" y="-220.28999999999996" as="sourcePoint" />
            <mxPoint x="900" y="-360.28999999999996" as="targetPoint" />
          </mxGeometry>
        </mxCell>
        <mxCell id="NxGeEWuJcDEcd79jNJc8-204" style="edgeStyle=orthogonalEdgeStyle;rounded=0;html=1;startArrow=none;startFill=0;endArrow=none;endFill=0;fontSize=18;fontColor=#F08705;strokeColor=#23445D;strokeWidth=2;curved=1;fontStyle=0;exitX=1;exitY=0;exitDx=0;exitDy=0;entryX=0.5;entryY=1;entryDx=0;entryDy=0;" edge="1" parent="1" source="NxGeEWuJcDEcd79jNJc8-179" target="84">
          <mxGeometry relative="1" as="geometry">
            <mxPoint x="669.4300000000001" y="-310" as="sourcePoint" />
            <mxPoint x="769.4300000000001" y="-450" as="targetPoint" />
          </mxGeometry>
        </mxCell>
        <mxCell id="NxGeEWuJcDEcd79jNJc8-205" style="edgeStyle=orthogonalEdgeStyle;rounded=0;html=1;startArrow=none;startFill=0;endArrow=none;endFill=0;fontSize=18;fontColor=#F08705;strokeColor=#23445D;strokeWidth=2;curved=1;fontStyle=0;exitX=0.5;exitY=0;exitDx=0;exitDy=0;entryX=0;entryY=1;entryDx=0;entryDy=0;" edge="1" parent="1" source="84" target="NxGeEWuJcDEcd79jNJc8-181">
          <mxGeometry relative="1" as="geometry">
            <mxPoint x="580" y="-355.29" as="sourcePoint" />
            <mxPoint x="680" y="-495.29" as="targetPoint" />
          </mxGeometry>
        </mxCell>
        <mxCell id="NxGeEWuJcDEcd79jNJc8-206" style="edgeStyle=orthogonalEdgeStyle;rounded=0;html=1;startArrow=none;startFill=0;endArrow=none;endFill=0;fontSize=18;fontColor=#F08705;strokeColor=#23445D;strokeWidth=2;curved=1;fontStyle=0;exitX=0.75;exitY=0;exitDx=0;exitDy=0;entryX=0;entryY=1;entryDx=0;entryDy=0;" edge="1" parent="1" source="39" target="NxGeEWuJcDEcd79jNJc8-181">
          <mxGeometry relative="1" as="geometry">
            <mxPoint x="179.43000000000006" y="-840" as="sourcePoint" />
            <mxPoint x="279.43000000000006" y="-980" as="targetPoint" />
          </mxGeometry>
        </mxCell>
        <mxCell id="NxGeEWuJcDEcd79jNJc8-207" style="edgeStyle=orthogonalEdgeStyle;rounded=0;html=1;startArrow=none;startFill=0;endArrow=none;endFill=0;fontSize=18;fontColor=#F08705;strokeColor=#23445D;strokeWidth=2;curved=1;fontStyle=0;entryX=0.25;entryY=1;entryDx=0;entryDy=0;exitX=0;exitY=0.75;exitDx=0;exitDy=0;" edge="1" parent="1" source="NxGeEWuJcDEcd79jNJc8-184" target="NxGeEWuJcDEcd79jNJc8-174">
          <mxGeometry relative="1" as="geometry">
            <mxPoint x="319.42999999999995" y="-120.57000000000005" as="sourcePoint" />
            <mxPoint x="419.42999999999995" y="-260.57000000000005" as="targetPoint" />
          </mxGeometry>
        </mxCell>
        <mxCell id="NxGeEWuJcDEcd79jNJc8-209" style="edgeStyle=orthogonalEdgeStyle;rounded=0;html=1;startArrow=none;startFill=0;endArrow=none;endFill=0;fontSize=18;fontColor=#F08705;strokeColor=#23445D;strokeWidth=2;curved=1;fontStyle=0;entryX=1;entryY=0.75;entryDx=0;entryDy=0;exitX=0.25;exitY=0;exitDx=0;exitDy=0;" edge="1" parent="1" source="84" target="NxGeEWuJcDEcd79jNJc8-175">
          <mxGeometry relative="1" as="geometry">
            <mxPoint x="236.42999999999995" y="-390" as="sourcePoint" />
            <mxPoint x="336.42999999999995" y="-530" as="targetPoint" />
          </mxGeometry>
        </mxCell>
        <mxCell id="NxGeEWuJcDEcd79jNJc8-210" style="edgeStyle=orthogonalEdgeStyle;rounded=0;html=1;startArrow=none;startFill=0;endArrow=none;endFill=0;fontSize=18;fontColor=#F08705;strokeColor=#23445D;strokeWidth=2;curved=1;fontStyle=0;entryX=0;entryY=0;entryDx=0;entryDy=0;exitX=0.5;exitY=1;exitDx=0;exitDy=0;" edge="1" parent="1" source="NxGeEWuJcDEcd79jNJc8-185" target="NxGeEWuJcDEcd79jNJc8-177">
          <mxGeometry relative="1" as="geometry">
            <mxPoint x="1060" y="-1" as="sourcePoint" />
            <mxPoint x="1160" y="-141" as="targetPoint" />
          </mxGeometry>
        </mxCell>
        <mxCell id="NxGeEWuJcDEcd79jNJc8-211" style="edgeStyle=orthogonalEdgeStyle;rounded=0;html=1;startArrow=none;startFill=0;endArrow=none;endFill=0;fontSize=18;fontColor=#F08705;strokeColor=#23445D;strokeWidth=2;curved=1;fontStyle=0;exitX=0;exitY=0;exitDx=0;exitDy=0;entryX=1;entryY=0.5;entryDx=0;entryDy=0;" edge="1" parent="1" source="NxGeEWuJcDEcd79jNJc8-176" target="NxGeEWuJcDEcd79jNJc8-185">
          <mxGeometry relative="1" as="geometry">
            <mxPoint x="1181.5" y="-290" as="sourcePoint" />
            <mxPoint x="1281.5" y="-430" as="targetPoint" />
          </mxGeometry>
        </mxCell>
        <mxCell id="NxGeEWuJcDEcd79jNJc8-212" style="edgeStyle=orthogonalEdgeStyle;rounded=0;html=1;startArrow=none;startFill=0;endArrow=none;endFill=0;fontSize=18;fontColor=#F08705;strokeColor=#23445D;strokeWidth=2;curved=1;fontStyle=0;entryX=0;entryY=0;entryDx=0;entryDy=0;exitX=0;exitY=0.5;exitDx=0;exitDy=0;" edge="1" parent="1" source="84" target="NxGeEWuJcDEcd79jNJc8-184">
          <mxGeometry relative="1" as="geometry">
            <mxPoint x="441.71000000000004" y="250" as="sourcePoint" />
            <mxPoint x="541.71" y="110" as="targetPoint" />
          </mxGeometry>
        </mxCell>
        <mxCell id="NxGeEWuJcDEcd79jNJc8-214" style="edgeStyle=orthogonalEdgeStyle;rounded=0;html=1;startArrow=none;startFill=0;endArrow=none;endFill=0;fontSize=18;fontColor=#F08705;strokeColor=#23445D;strokeWidth=2;curved=1;fontStyle=0;entryX=0.25;entryY=0;entryDx=0;entryDy=0;exitX=0.5;exitY=0;exitDx=0;exitDy=0;" edge="1" parent="1" source="42" target="NxGeEWuJcDEcd79jNJc8-172">
          <mxGeometry relative="1" as="geometry">
            <mxPoint x="502.42999999999995" y="-635.5699999999999" as="sourcePoint" />
            <mxPoint x="602.43" y="-775.5699999999999" as="targetPoint" />
          </mxGeometry>
        </mxCell>
        <mxCell id="NxGeEWuJcDEcd79jNJc8-215" style="edgeStyle=orthogonalEdgeStyle;rounded=0;html=1;startArrow=none;startFill=0;endArrow=none;endFill=0;fontSize=18;fontColor=#F08705;strokeColor=#23445D;strokeWidth=2;curved=1;fontStyle=0;entryX=0;entryY=1;entryDx=0;entryDy=0;exitX=0;exitY=0.25;exitDx=0;exitDy=0;" edge="1" parent="1" source="NxGeEWuJcDEcd79jNJc8-217" target="NxGeEWuJcDEcd79jNJc8-191">
          <mxGeometry relative="1" as="geometry">
            <mxPoint x="819.71" y="-60" as="sourcePoint" />
            <mxPoint x="1080" y="-570" as="targetPoint" />
          </mxGeometry>
        </mxCell>
        <mxCell id="NxGeEWuJcDEcd79jNJc8-216" style="edgeStyle=orthogonalEdgeStyle;rounded=0;html=1;startArrow=none;startFill=0;endArrow=none;endFill=0;fontSize=18;fontColor=#F08705;strokeColor=#23445D;strokeWidth=2;curved=1;fontStyle=0;exitX=0;exitY=0.25;exitDx=0;exitDy=0;entryX=0;entryY=0.5;entryDx=0;entryDy=0;" edge="1" parent="1" source="NxGeEWuJcDEcd79jNJc8-183" target="NxGeEWuJcDEcd79jNJc8-185">
          <mxGeometry relative="1" as="geometry">
            <mxPoint x="833" y="-300.57" as="sourcePoint" />
            <mxPoint x="933" y="-440.57" as="targetPoint" />
          </mxGeometry>
        </mxCell>
        <mxCell id="NxGeEWuJcDEcd79jNJc8-217" value="DCJ" style="image;html=1;image=img/lib/clip_art/networking/Router_128x128.png;shadow=0;strokeColor=#000000;fillColor=#FFFFFF;gradientColor=none;fontSize=18;fontColor=#F08705;fontStyle=0" vertex="1" parent="1">
          <mxGeometry x="1050" y="-550" width="80" height="80" as="geometry" />
        </mxCell>
        <mxCell id="NxGeEWuJcDEcd79jNJc8-218" style="edgeStyle=orthogonalEdgeStyle;rounded=0;html=1;startArrow=none;startFill=0;endArrow=none;endFill=0;fontSize=18;fontColor=#F08705;strokeColor=#23445D;strokeWidth=2;curved=1;fontStyle=0" edge="1" parent="1">
          <mxGeometry relative="1" as="geometry">
            <mxPoint x="973" y="-800" as="sourcePoint" />
            <mxPoint x="1073" y="-940" as="targetPoint" />
          </mxGeometry>
        </mxCell>
        <mxCell id="NxGeEWuJcDEcd79jNJc8-219" style="edgeStyle=orthogonalEdgeStyle;rounded=0;html=1;startArrow=none;startFill=0;endArrow=none;endFill=0;fontSize=18;fontColor=#F08705;strokeColor=#23445D;strokeWidth=2;curved=1;fontStyle=0" edge="1" parent="1">
          <mxGeometry relative="1" as="geometry">
            <mxPoint x="983" y="-790" as="sourcePoint" />
            <mxPoint x="1083" y="-930" as="targetPoint" />
          </mxGeometry>
        </mxCell>
        <mxCell id="NxGeEWuJcDEcd79jNJc8-220" style="edgeStyle=orthogonalEdgeStyle;rounded=0;html=1;startArrow=none;startFill=0;endArrow=none;endFill=0;fontSize=18;fontColor=#F08705;strokeColor=#23445D;strokeWidth=2;curved=1;fontStyle=0" edge="1" parent="1">
          <mxGeometry relative="1" as="geometry">
            <mxPoint x="993" y="-780" as="sourcePoint" />
            <mxPoint x="1093" y="-920" as="targetPoint" />
          </mxGeometry>
        </mxCell>
        <mxCell id="NxGeEWuJcDEcd79jNJc8-221" style="edgeStyle=orthogonalEdgeStyle;rounded=0;html=1;startArrow=none;startFill=0;endArrow=none;endFill=0;fontSize=18;fontColor=#F08705;strokeColor=#23445D;strokeWidth=2;curved=1;fontStyle=0" edge="1" parent="1">
          <mxGeometry relative="1" as="geometry">
            <mxPoint x="1003" y="-770" as="sourcePoint" />
            <mxPoint x="1103" y="-910" as="targetPoint" />
          </mxGeometry>
        </mxCell>
        <mxCell id="NxGeEWuJcDEcd79jNJc8-222" style="edgeStyle=orthogonalEdgeStyle;rounded=0;html=1;startArrow=none;startFill=0;endArrow=none;endFill=0;fontSize=18;fontColor=#F08705;strokeColor=#23445D;strokeWidth=2;curved=1;fontStyle=0;exitX=1;exitY=0;exitDx=0;exitDy=0;entryX=0;entryY=1;entryDx=0;entryDy=0;" edge="1" parent="1" source="22" target="NxGeEWuJcDEcd79jNJc8-184">
          <mxGeometry relative="1" as="geometry">
            <mxPoint x="120" y="70" as="sourcePoint" />
            <mxPoint x="220" y="-70" as="targetPoint" />
          </mxGeometry>
        </mxCell>
        <mxCell id="NxGeEWuJcDEcd79jNJc8-223" style="edgeStyle=orthogonalEdgeStyle;rounded=0;html=1;startArrow=none;startFill=0;endArrow=none;endFill=0;fontSize=18;fontColor=#F08705;strokeColor=#23445D;strokeWidth=2;curved=1;fontStyle=0;exitX=0.5;exitY=0;exitDx=0;exitDy=0;entryX=0.25;entryY=1;entryDx=0;entryDy=0;" edge="1" parent="1" source="39" target="NxGeEWuJcDEcd79jNJc8-191">
          <mxGeometry relative="1" as="geometry">
            <mxPoint x="219.71000000000004" y="-850" as="sourcePoint" />
            <mxPoint x="319.71000000000004" y="-990" as="targetPoint" />
          </mxGeometry>
        </mxCell>
        <mxCell id="NxGeEWuJcDEcd79jNJc8-225" value="" style="image;html=1;image=img/lib/clip_art/computers/Monitor_Tower_128x128.png;shadow=0;strokeColor=#000000;fillColor=#FFFFFF;gradientColor=none;fontSize=18;fontColor=#F08705;fontStyle=0" vertex="1" parent="1">
          <mxGeometry x="573" y="170" width="80" height="80" as="geometry" />
        </mxCell>
        <mxCell id="NxGeEWuJcDEcd79jNJc8-226" value="" style="image;html=1;image=img/lib/clip_art/computers/Monitor_Tower_128x128.png;shadow=0;strokeColor=#000000;fillColor=#FFFFFF;gradientColor=none;fontSize=18;fontColor=#F08705;fontStyle=0" vertex="1" parent="1">
          <mxGeometry x="472" y="170" width="80" height="80" as="geometry" />
        </mxCell>
        <mxCell id="NxGeEWuJcDEcd79jNJc8-227" style="edgeStyle=orthogonalEdgeStyle;rounded=0;html=1;startArrow=none;startFill=0;endArrow=none;endFill=0;fontSize=18;fontColor=#F08705;strokeColor=#23445D;strokeWidth=2;curved=1;fontStyle=0;entryX=0;entryY=1;entryDx=0;entryDy=0;exitX=0;exitY=0;exitDx=0;exitDy=0;" edge="1" parent="1" source="NxGeEWuJcDEcd79jNJc8-226">
          <mxGeometry relative="1" as="geometry">
            <mxPoint x="500" y="140" as="sourcePoint" />
            <mxPoint x="610" y="90" as="targetPoint" />
          </mxGeometry>
        </mxCell>
        <mxCell id="NxGeEWuJcDEcd79jNJc8-228" style="edgeStyle=orthogonalEdgeStyle;rounded=0;html=1;startArrow=none;startFill=0;endArrow=none;endFill=0;fontSize=18;fontColor=#F08705;strokeColor=#23445D;strokeWidth=2;curved=1;fontStyle=0;entryX=0;entryY=1;entryDx=0;entryDy=0;exitX=0;exitY=0;exitDx=0;exitDy=0;" edge="1" parent="1" source="NxGeEWuJcDEcd79jNJc8-225">
          <mxGeometry relative="1" as="geometry">
            <mxPoint x="482" y="180" as="sourcePoint" />
            <mxPoint x="620" y="100" as="targetPoint" />
          </mxGeometry>
        </mxCell>
        <mxCell id="NxGeEWuJcDEcd79jNJc8-230" value="" style="endArrow=none;html=1;rounded=0;" edge="1" parent="1">
          <mxGeometry width="50" height="50" relative="1" as="geometry">
            <mxPoint x="860" y="-160" as="sourcePoint" />
            <mxPoint x="910" y="-210" as="targetPoint" />
          </mxGeometry>
        </mxCell>
        <mxCell id="NxGeEWuJcDEcd79jNJc8-234" value="" style="image;html=1;image=img/lib/clip_art/computers/Monitor_Tower_128x128.png;shadow=0;strokeColor=#000000;fillColor=#FFFFFF;gradientColor=none;fontSize=18;fontColor=#F08705;fontStyle=0" vertex="1" parent="1">
          <mxGeometry x="1794" y="1597" width="80" height="80" as="geometry" />
        </mxCell>
        <mxCell id="NxGeEWuJcDEcd79jNJc8-236" value="CTI-02" style="image;html=1;image=img/lib/clip_art/computers/Monitor_Tower_128x128.png;shadow=0;strokeColor=#000000;fillColor=#FFFFFF;gradientColor=none;fontSize=18;fontColor=#000000;fontStyle=0" vertex="1" parent="1">
          <mxGeometry x="1474" y="1584" width="80" height="80" as="geometry" />
        </mxCell>
        <mxCell id="NxGeEWuJcDEcd79jNJc8-237" value="" style="edgeStyle=elbowEdgeStyle;strokeWidth=2;rounded=0;endArrow=none;startArrow=none;startSize=10;endSize=10;dashed=0;html=1;strokeColor=#23445D;fontSize=18;fontColor=#F08705;startFill=0;endFill=0;fontStyle=0;entryX=0;entryY=0;entryDx=40;entryDy=0;entryPerimeter=0;" edge="1" parent="1" target="74">
          <mxGeometry relative="1" as="geometry">
            <mxPoint x="1826" y="1678" as="sourcePoint" />
            <mxPoint x="1826" y="1710" as="targetPoint" />
          </mxGeometry>
        </mxCell>
        <mxCell id="NxGeEWuJcDEcd79jNJc8-238" value="" style="edgeStyle=elbowEdgeStyle;strokeWidth=2;rounded=0;endArrow=none;startArrow=none;startSize=10;endSize=10;dashed=0;html=1;strokeColor=#23445D;fontSize=18;fontColor=#F08705;startFill=0;endFill=0;fontStyle=0;entryX=0;entryY=0;entryDx=50;entryDy=0;entryPerimeter=0;" edge="1" parent="1" source="NxGeEWuJcDEcd79jNJc8-235" target="70">
          <mxGeometry relative="1" as="geometry">
            <mxPoint x="1233.5033333333336" y="1668" as="sourcePoint" />
            <mxPoint x="1233.17" y="1712" as="targetPoint" />
          </mxGeometry>
        </mxCell>
        <mxCell id="NxGeEWuJcDEcd79jNJc8-240" value="" style="image;html=1;image=img/lib/clip_art/computers/Monitor_Tower_128x128.png;shadow=0;strokeColor=#000000;fillColor=#FFFFFF;gradientColor=none;fontSize=18;fontColor=#F08705;fontStyle=0" vertex="1" parent="1">
          <mxGeometry x="1530" y="3974" width="80" height="80" as="geometry" />
        </mxCell>
        <mxCell id="NxGeEWuJcDEcd79jNJc8-241" value="DRPC-02" style="image;html=1;image=img/lib/clip_art/computers/Monitor_Tower_128x128.png;shadow=0;strokeColor=#000000;fillColor=#FFFFFF;gradientColor=none;fontSize=18;fontColor=#000000;fontStyle=0" vertex="1" parent="1">
          <mxGeometry x="689" y="1589" width="80" height="80" as="geometry" />
        </mxCell>
        <mxCell id="NxGeEWuJcDEcd79jNJc8-242" value="PRENSA-1" style="image;html=1;image=img/lib/clip_art/computers/Monitor_Tower_128x128.png;shadow=0;strokeColor=#000000;fillColor=#FFFFFF;gradientColor=none;fontSize=18;fontColor=#000000;fontStyle=0" vertex="1" parent="1">
          <mxGeometry x="595" y="1590" width="80" height="80" as="geometry" />
        </mxCell>
        <mxCell id="NxGeEWuJcDEcd79jNJc8-243" value="HP-DRPC&lt;br style=&quot;font-size: 18px;&quot;&gt;192.168.1.197" style="image;html=1;image=img/lib/clip_art/computers/Printer_128x128.png;fontSize=18;" vertex="1" parent="1">
          <mxGeometry x="894" y="1587" width="80" height="80" as="geometry" />
        </mxCell>
        <mxCell id="NxGeEWuJcDEcd79jNJc8-235" value="Y3LG&lt;br&gt;" style="image;html=1;image=img/lib/clip_art/computers/Monitor_Tower_128x128.png;shadow=0;strokeColor=#000000;fillColor=#FFFFFF;gradientColor=none;fontSize=18;fontColor=#000000;fontStyle=0" vertex="1" parent="1">
          <mxGeometry x="1194" y="1586" width="80" height="80" as="geometry" />
        </mxCell>
        <mxCell id="NxGeEWuJcDEcd79jNJc8-248" value="" style="strokeWidth=2;strokeColor=#666666;dashed=0;align=center;html=1;fontSize=8;shape=mxgraph.eip.messageChannel;shadow=0;fillColor=#FFFFFF;gradientColor=none;fontColor=#F08705;fontStyle=0;rotation=90;" vertex="1" parent="1">
          <mxGeometry x="-232" y="1496" width="415" height="20" as="geometry" />
        </mxCell>
        <mxCell id="NxGeEWuJcDEcd79jNJc8-251" value="OAC-01" style="image;html=1;image=img/lib/clip_art/computers/Monitor_Tower_128x128.png;shadow=0;strokeColor=#000000;fillColor=#FFFFFF;gradientColor=none;fontSize=18;fontColor=#000000;fontStyle=0" vertex="1" parent="1">
          <mxGeometry x="45" y="1436" width="80" height="80" as="geometry" />
        </mxCell>
        <mxCell id="NxGeEWuJcDEcd79jNJc8-252" value="OAC-02" style="image;html=1;image=img/lib/clip_art/computers/Monitor_Tower_128x128.png;shadow=0;strokeColor=#000000;fillColor=#FFFFFF;gradientColor=none;fontSize=18;fontColor=#000000;fontStyle=0" vertex="1" parent="1">
          <mxGeometry x="38" y="1585" width="80" height="80" as="geometry" />
        </mxCell>
        <mxCell id="NxGeEWuJcDEcd79jNJc8-256" value="192.168.1.1" style="image;html=1;image=img/lib/clip_art/networking/Switch_128x128.png;fontSize=18;" vertex="1" parent="1">
          <mxGeometry x="38" y="1296" width="80" height="80" as="geometry" />
        </mxCell>
        <mxCell id="NxGeEWuJcDEcd79jNJc8-262" value="SECRETARÍA DE CÁMARA" style="rounded=1;whiteSpace=wrap;html=1;shadow=0;strokeColor=none;fillColor=#BAC8D3;gradientColor=none;fontSize=18;fontColor=#AE4132;verticalAlign=bottom;fontStyle=0;opacity=40;strokeWidth=3;" vertex="1" parent="1">
          <mxGeometry x="62.5" y="490" width="480" height="660" as="geometry" />
        </mxCell>
        <mxCell id="NxGeEWuJcDEcd79jNJc8-263" value="" style="strokeWidth=2;strokeColor=#666666;dashed=0;align=center;html=1;fontSize=8;shape=mxgraph.eip.messageChannel;shadow=0;fillColor=#FFFFFF;gradientColor=none;fontColor=#F08705;fontStyle=0;rotation=90;" vertex="1" parent="1">
          <mxGeometry x="60" y="792.5" width="520" height="20" as="geometry" />
        </mxCell>
        <mxCell id="NxGeEWuJcDEcd79jNJc8-264" value="&lt;br&gt;" style="image;html=1;image=img/lib/clip_art/computers/Monitor_Tower_128x128.png;shadow=0;strokeColor=#000000;fillColor=#FFFFFF;gradientColor=none;fontSize=18;fontColor=#000000;fontStyle=0" vertex="1" parent="1">
          <mxGeometry x="371.5" y="880" width="80" height="80" as="geometry" />
        </mxCell>
        <mxCell id="NxGeEWuJcDEcd79jNJc8-266" value="192.168.1.1" style="image;html=1;image=img/lib/clip_art/networking/Switch_128x128.png;fontSize=18;" vertex="1" parent="1">
          <mxGeometry x="172.5" y="550" width="80" height="80" as="geometry" />
        </mxCell>
        <mxCell id="NxGeEWuJcDEcd79jNJc8-267" value="&lt;br&gt;" style="image;html=1;image=img/lib/clip_art/computers/Monitor_Tower_128x128.png;shadow=0;strokeColor=#000000;fillColor=#FFFFFF;gradientColor=none;fontSize=18;fontColor=#000000;fontStyle=0" vertex="1" parent="1">
          <mxGeometry x="371.5" y="780" width="80" height="80" as="geometry" />
        </mxCell>
        <mxCell id="NxGeEWuJcDEcd79jNJc8-268" value="&lt;br&gt;" style="image;html=1;image=img/lib/clip_art/computers/Monitor_Tower_128x128.png;shadow=0;strokeColor=#000000;fillColor=#FFFFFF;gradientColor=none;fontSize=18;fontColor=#000000;fontStyle=0" vertex="1" parent="1">
          <mxGeometry x="371.5" y="685" width="80" height="80" as="geometry" />
        </mxCell>
        <mxCell id="NxGeEWuJcDEcd79jNJc8-269" value="SC-01" style="image;html=1;image=img/lib/clip_art/computers/Monitor_Tower_128x128.png;shadow=0;strokeColor=#000000;fillColor=#FFFFFF;gradientColor=none;fontSize=18;fontColor=#000000;fontStyle=0" vertex="1" parent="1">
          <mxGeometry x="371.5" y="550" width="80" height="80" as="geometry" />
        </mxCell>
        <mxCell id="NxGeEWuJcDEcd79jNJc8-270" value="192.168.1.198" style="image;html=1;image=img/lib/clip_art/computers/Printer_Commercial_128x128.png;fontSize=18;" vertex="1" parent="1">
          <mxGeometry x="172.5" y="720" width="80" height="80" as="geometry" />
        </mxCell>
        <mxCell id="NxGeEWuJcDEcd79jNJc8-271" value="&lt;br&gt;" style="image;html=1;image=img/lib/clip_art/computers/Monitor_Tower_128x128.png;shadow=0;strokeColor=#000000;fillColor=#FFFFFF;gradientColor=none;fontSize=18;fontColor=#000000;fontStyle=0" vertex="1" parent="1">
          <mxGeometry x="371.5" y="980" width="80" height="80" as="geometry" />
        </mxCell>
      </root>
    </mxGraphModel>
  </diagram>
</mxfile>
